<?xml version="1.0" encoding="UTF-8"?>
<svg width="20px" height="20px" viewBox="0 0 20 20" version="1.1" xmlns="http://www.w3.org/2000/svg" xmlns:xlink="http://www.w3.org/1999/xlink">
    <title>密码</title>
    <defs>
        <rect id="path-1" x="0" y="0" width="20" height="20"></rect>
    </defs>
    <g id="猎鹰智能体平台定稿" stroke="none" stroke-width="1" fill="none" fill-rule="evenodd">
        <g id="01猎鹰智能体平台_登录" transform="translate(-810.000000, -32.000000)">
            <g id="密码" transform="translate(810.000000, 32.000000)">
                <mask id="mask-2" fill="white">
                    <use xlink:href="#path-1"></use>
                </mask>
                <g id="矩形"></g>
                <g mask="url(#mask-2)" fill="#C3C4CD" fill-rule="nonzero">
                    <g transform="translate(4.500000, 3.000000)">
                        <path d="M9.24401654,4.83384479 L8.99067633,4.83384479 C8.98100686,4.83384479 8.97327128,4.8260088 8.97327128,4.8162138 L8.97327128,3.52131562 C8.97327128,2.59275021 8.62323636,1.71511876 7.98698499,1.05297717 C7.4764368,0.520129499 6.82471429,0.175345725 6.10723937,0.0519288101 C3.96641797,-0.322239961 2.01705215,1.37425297 2.01705215,3.57420858 L2.01705215,4.8162138 C2.01705215,4.8260088 2.00931657,4.83384479 1.9996471,4.83384479 L1.77531531,4.83384479 C0.794830712,4.83384479 0,5.63899328 0,6.63220565 L0,12.2016391 C0,13.1948515 0.794830712,14 1.77531531,14 L9.22467759,14 C10.2051622,14 11,13.1948515 11,12.2016391 L11,6.61457465 C11.0019268,5.63115727 10.2148317,4.83384479 9.24401654,4.83384479 Z M2.85056075,3.52131562 C2.85056075,1.90905963 3.90453334,0.843364306 5.49419477,0.843364306 C6.27355431,0.843364306 6.8614583,1.09019816 7.39134543,1.64263579 C7.9096292,2.18331945 8.13782878,2.76318308 8.13782878,3.52131559 L8.13782878,4.81621378 C8.13782878,4.82600878 8.13009321,4.83384479 8.12042374,4.83384479 L2.86796579,4.83384479 C2.85829632,4.83384479 2.85056075,4.8260088 2.85056075,4.8162138 L2.85056075,3.52131562 Z M10.1703521,12.2192701 C10.1703521,12.8461497 9.86286282,13.1576305 9.24401654,13.1576305 L1.77724921,13.1576305 C1.25703154,13.1576305 0.8335086,12.7305688 0.8335086,12.2016391 L0.8335086,6.76345855 C0.8335086,6.16400494 1.31311448,5.67817325 1.90488624,5.67817325 L9.22467757,5.67817325 C9.74489523,5.67817325 10.1684182,6.10523499 10.1684182,6.63416465 L10.1684182,12.2192701 L10.1703521,12.2192701 Z" id="形状"></path>
                        <path d="M5.46905413,8.02701276 C5.17316823,8.02701276 5.08227519,8.25033863 5.08227519,8.42860751 L5.08227519,10.1446904 C5.08227519,10.3229593 5.2563257,10.4679252 5.46905413,10.4679252 C5.68178255,10.4679252 5.85583306,10.3229593 5.85583306,10.1446904 L5.85583306,8.42860751 C5.85583306,8.25033863 5.72046044,8.02701276 5.46905413,8.02701276 Z" id="路径"></path>
                    </g>
                </g>
            </g>
        </g>
    </g>
</svg>