<?xml version="1.0" encoding="UTF-8"?>
<svg width="20px" height="20px" viewBox="0 0 20 20" version="1.1" xmlns="http://www.w3.org/2000/svg" xmlns:xlink="http://www.w3.org/1999/xlink">
    <title>邮箱</title>
    <defs>
        <rect id="path-1" x="0" y="0" width="20" height="20"></rect>
    </defs>
    <g id="猎鹰智能体平台定稿" stroke="none" stroke-width="1" fill="none" fill-rule="evenodd">
        <g id="邮箱">
            <mask id="mask-2" fill="white">
                <use xlink:href="#path-1"></use>
            </mask>
            <g id="矩形"></g>
            <g mask="url(#mask-2)" fill="#C3C4CD" fill-rule="nonzero" id="形状">
                <g transform="translate(3.000000, 4.500000)">
                    <path d="M12.3641,0.733333339 L1.40000001,0.733333339 C1.3405,0.733333339 1.28240001,0.741033339 1.22675001,0.756066661 L6.53729999,6.31913334 C6.67397494,6.46227339 6.89552506,6.46227339 7.03220001,6.31913334 L12.3641,0.733333339 Z M13.12115,0.977166661 L8.84414999,5.45783334 L13.1579,9.97663334 C13.24715,9.85343334 13.3,9.6998 13.3,9.53333334 L13.3,1.46666666 C13.3,1.27856666 13.23245,1.10733332 13.1215,0.977166661 L13.12115,0.977166661 Z M12.4446,10.2666667 L8.34959999,5.9763 L7.5271,6.83796666 C7.33018169,7.04429698 7.06308313,7.16021508 6.784575,7.16021508 C6.50606687,7.16021508 6.23896831,7.04429698 6.04205001,6.83796666 L5.21990001,5.9763 L1.1655,10.2245 C1.239,10.2516333 1.31775,10.2666667 1.40035,10.2666667 L12.44495,10.2666667 L12.4446,10.2666667 Z M0.710849999,9.66313334 L4.725,5.45746666 L0.72590001,1.26866666 C0.708691033,1.33312111 0.699999959,1.39973834 0.699999959,1.46666666 L0.699999959,9.53333334 C0.699999959,9.57733334 0.703499999,9.62096668 0.710849999,9.66313334 Z M1.40000001,-6.25277607e-16 L12.6,-6.25277607e-16 C12.9713031,-6.25277607e-16 13.3273986,0.154523359 13.5899495,0.429576713 C13.8525004,0.704630068 14,1.07768247 14,1.46666666 L14,9.53333334 C14,9.92231753 13.8525004,10.2953699 13.5899495,10.5704233 C13.3273986,10.8454766 12.9713031,11 12.6,11 L1.40000001,11 C1.02869692,11 0.672601442,10.8454766 0.41005051,10.5704233 C0.147499578,10.2953699 2.98427949e-16,9.92231753 2.98427949e-16,9.53333334 L2.98427949e-16,1.46666666 C2.98427949e-16,1.07768247 0.147499578,0.704630068 0.41005051,0.429576713 C0.672601442,0.154523359 1.02869692,-6.25277607e-16 1.40000001,-6.25277607e-16 L1.40000001,-6.25277607e-16 Z"></path>
                </g>
            </g>
        </g>
    </g>
</svg>