<?xml version="1.0" encoding="UTF-8"?>
<svg width="20px" height="20px" viewBox="0 0 20 20" version="1.1" xmlns="http://www.w3.org/2000/svg" xmlns:xlink="http://www.w3.org/1999/xlink">
    <title>验证码</title>
    <defs>
        <rect id="path-1" x="0" y="0" width="20" height="20"></rect>
    </defs>
    <g id="猎鹰智能体平台定稿" stroke="none" stroke-width="1" fill="none" fill-rule="evenodd">
        <g id="验证码">
            <mask id="mask-2" fill="white">
                <use xlink:href="#path-1"></use>
            </mask>
            <g id="矩形"></g>
            <g mask="url(#mask-2)" fill="#C3C4CD" fill-rule="nonzero" id="形状">
                <g transform="translate(4.000000, 3.000000)">
                    <path d="M0.887506767,3.110063 L0.887506767,1.36939521 C0.888259582,1.1069521 1.10082469,0.894386991 1.3632678,0.893634175 L10.2127777,0.893634175 C10.475234,0.89438677 10.6878223,1.10693906 10.6886194,1.36939521 L10.6886194,3.11022425 L11.5762874,3.11022425 L11.5762874,0.951602686 C11.5762874,0.428273614 11.1479332,0 10.6244428,0 L0.951602686,0 C0.428112367,0 8.8817842e-16,0.428273614 8.8817842e-16,0.951602686 L8.8817842e-16,3.11014363 L0.887506767,3.11014363 L0.887506767,3.110063 Z M10.6886194,10.7348974 L10.6886194,12.6305242 C10.6877341,12.8929305 10.4751843,13.1054082 10.2127777,13.1062046 L1.3632678,13.1062046 C1.10087435,13.105408 0.888347845,12.8929175 0.887506767,12.6305242 L0.887506767,10.7348974 L0,10.7348974 L0,13.0483167 C0,13.5716458 0.428273614,14 0.951602686,14 L10.6244428,14 C11.1478525,14 11.5762874,13.5717264 11.5762874,13.0483167 L11.5762874,10.7348974 L10.6886194,10.7348974 L10.6886194,10.7348974 Z M2.06791979,9.32398097 L1.16565887,9.32398097 L1.16565887,5.92254357 C0.835907536,6.23044585 0.447462078,6.45836933 0,6.60655587 L0,5.7874987 C0.23542149,5.7105836 0.491160176,5.56417078 0.767457932,5.34914712 C1.04367506,5.1339622 1.23306036,4.88298032 1.33577508,4.59620147 L2.06783917,4.59620147 L2.06783917,9.32398097 L2.06791979,9.32398097 Z M7.10481094,8.4855741 L7.10481094,9.32414222 L3.94153623,9.32414222 C3.97604321,9.0069682 4.07875793,8.70672518 4.25000288,8.42333253 C4.42108658,8.13873052 4.75930341,7.76310425 5.26465338,7.29379312 C5.67164231,6.91494189 5.92052797,6.65791323 6.01308409,6.52302961 C6.13708349,6.33694989 6.19924444,6.15272451 6.19924444,5.97059535 C6.19924444,5.76968084 6.14506525,5.61480253 6.03702936,5.50668602 C5.92859035,5.39881137 5.78008131,5.34463218 5.58924479,5.34463218 C5.40106884,5.34463218 5.25086671,5.40131071 5.13952524,5.51450652 C5.02818378,5.62810546 4.96384599,5.81652327 4.94683436,6.07992122 L4.04755652,5.99026756 C4.10125197,5.49370558 4.26927197,5.1370259 4.55161651,4.92103475 C4.83420292,4.70455985 5.1874964,4.59660459 5.61157758,4.59660459 C6.0761319,4.59660459 6.44095459,4.72157147 6.70685187,4.97231148 C6.97226541,5.222729 7.10498315,5.53425936 7.10498315,5.9067413 C7.10573255,6.11389269 7.06695783,6.31928648 6.99072826,6.51190353 C6.91445815,6.7035463 6.79440932,6.9044608 6.6293724,7.11432455 C6.5202884,7.25348122 6.32332446,7.45350886 6.03864183,7.71529433 C5.7542817,7.97595107 5.57392626,8.1501791 5.4978174,8.23523721 C5.42801613,8.31239982 5.36613626,8.39637386 5.31310828,8.48589659 L7.10481094,8.48589659 L7.10481094,8.4855741 Z M8.44856778,8.0746346 L9.32196538,7.96869493 C9.34994184,8.19137786 9.42476072,8.36165532 9.54634141,8.47904357 C9.66880896,8.59659307 9.81643113,8.65552906 9.9897723,8.65552906 C10.1760939,8.65552906 10.3328266,8.58466075 10.4599703,8.44405284 C10.5875978,8.30247745 10.6513712,8.1118828 10.6513712,7.87226887 C10.6513712,7.64515163 10.5901777,7.46544118 10.4683552,7.33281504 C10.3462907,7.19962452 10.1974592,7.13310989 10.0220218,7.13310989 C9.90624604,7.13310989 9.76837935,7.15544268 9.60753487,7.20059201 L9.70710526,6.46522235 C9.95123412,6.47159163 10.137072,6.41854117 10.2657476,6.30623222 C10.39402,6.19384265 10.4584384,6.04476924 10.4584384,5.85820577 C10.4584384,5.70002188 10.4113541,5.5733619 10.3176693,5.47927393 C10.2228557,5.38510533 10.0975663,5.33810166 9.94155926,5.33810166 C9.78748719,5.33810166 9.65550603,5.39139399 9.54634141,5.49862364 C9.4375799,5.60536954 9.37130714,5.76186034 9.3474425,5.96728977 L8.51580802,5.82619813 C8.57361529,5.54175737 8.66109211,5.31375327 8.77759349,5.14331456 C8.894498,4.97352084 9.05687433,4.83960471 9.26577059,4.74229179 C9.47458623,4.64489824 9.70831462,4.59620147 9.96735888,4.59620147 C10.4105479,4.59620147 10.7655345,4.73753498 11.0336086,5.02028264 C11.2537116,5.25126982 11.3642468,5.51257155 11.3642468,5.80354284 C11.3642468,6.21682043 11.1383389,6.54649114 10.6866844,6.79263559 C10.9562904,6.85052348 11.1722009,6.98024717 11.3338516,7.18156479 C11.4955023,7.38280179 11.576368,7.6257213 11.576368,7.91024268 C11.576368,8.32376214 11.425279,8.67592689 11.1235848,8.96681755 C10.8217293,9.25811133 10.446103,9.40371791 9.99638345,9.40371791 C9.57028668,9.40371791 9.21739631,9.28092786 8.93658362,9.03631526 C8.65617406,8.79105767 8.49339461,8.47025558 8.44856778,8.0746346 L8.44856778,8.0746346 Z"></path>
                </g>
            </g>
        </g>
    </g>
</svg>