<?xml version="1.0" encoding="UTF-8"?>
<svg width="20px" height="20px" viewBox="0 0 20 20" version="1.1" xmlns="http://www.w3.org/2000/svg" xmlns:xlink="http://www.w3.org/1999/xlink">
    <title>手机号</title>
    <defs>
        <rect id="path-1" x="0" y="0" width="20" height="20"></rect>
    </defs>
    <g id="猎鹰智能体平台定稿" stroke="none" stroke-width="1" fill="none" fill-rule="evenodd">
        <g id="手机号">
            <mask id="mask-2" fill="white">
                <use xlink:href="#path-1"></use>
            </mask>
            <g id="矩形"></g>
            <g id="手机" mask="url(#mask-2)" fill="#C3C4CD" fill-rule="nonzero">
                <g transform="translate(5.000000, 3.000000)">
                    <path d="M8.92499999,14 L1.4,14 C0.630000007,14 0,13.37 0,12.6 L0,1.4 C0,0.630000007 0.630000007,0 1.4,0 L8.92499999,0 C9.69499999,0 10.325,0.630000007 10.325,1.4 L10.325,12.6 C10.325,13.37 9.69499999,14 8.92499999,14 Z M1.4,0.70000001 C1.01500001,0.70000001 0.699999993,1.01500001 0.699999993,1.4 L0.699999993,12.6 C0.699999993,12.985 1.01499999,13.3 1.4,13.3 L8.92499999,13.3 C9.30999999,13.3 9.625,12.985 9.625,12.6 L9.625,1.4 C9.625,1.01500001 9.31,0.70000001 8.92499999,0.70000001 L1.4,0.70000001 Z" id="形状"></path>
                    <path d="M6.9125,12.075 L3.4125,12.075 C3.21999999,12.075 3.0625,11.9175 3.0625,11.725 C3.0625,11.5325 3.22000001,11.375 3.4125,11.375 L6.9125,11.375 C7.105,11.375 7.26249999,11.5325 7.26249999,11.725 C7.26249999,11.9175 7.10499999,12.075 6.9125,12.075 Z" id="路径"></path>
                </g>
            </g>
        </g>
    </g>
</svg>