<?xml version="1.0" encoding="UTF-8"?>
<svg width="20px" height="20px" viewBox="0 0 20 20" version="1.1" xmlns="http://www.w3.org/2000/svg" xmlns:xlink="http://www.w3.org/1999/xlink">
    <title>卡片管理</title>
    <defs>
        <rect id="path-1" x="0" y="0" width="20" height="20"></rect>
    </defs>
    <g id="猎鹰智能体平台定稿" stroke="none" stroke-width="1" fill="none" fill-rule="evenodd">
        <g id="02猎鹰智能体平台_注册" transform="translate(-1318.000000, -196.000000)">
            <g id="卡片管理" transform="translate(1318.000000, 196.000000)">
                <mask id="mask-2" fill="white">
                    <use xlink:href="#path-1"></use>
                </mask>
                <g id="矩形"></g>
                <g id="icon-user" mask="url(#mask-2)" fill="#C3C4CD" fill-rule="nonzero">
                    <g transform="translate(3.500000, 3.000000)" id="形状">
                        <path d="M8.68171494,7.63055648 C9.92416286,6.93061159 10.7662808,5.60160318 10.7662808,4.07788422 C10.7662808,1.82926613 8.93535531,4.93652914e-16 6.68472676,4.93652914e-16 C4.43409822,4.93652914e-16 2.60340313,1.82926613 2.60340313,4.07788422 C2.60340313,5.54369655 3.3835733,6.82750653 4.54859975,7.5461671 C1.91508234,8.37617971 0,10.8379752 0,13.7399179 C0,13.8277731 0.00971313616,13.9128557 0.0132048954,14 L0.920071164,14 C0.916083106,13.9133889 0.906883988,13.8277909 0.906883988,13.7399179 C0.906883988,10.6607717 3.41592085,8.15578622 6.5,8.15578622 C9.58407911,8.15578622 12.0931337,10.6607717 12.0931337,13.7399179 C12.0931337,13.8277731 12.0839169,13.9133889 12.0796984,14 L12.9868305,14 C12.9903046,13.9128735 13,13.8277909 13,13.7399179 C13,10.9246219 11.1942436,8.52921102 8.68171494,7.63055648 Z M3.51028714,4.07788422 C3.51028714,2.33076799 4.93421821,0.909389819 6.68472676,0.909389819 C8.43527077,0.909389819 9.85918412,2.33076799 9.85918412,4.07788422 C9.85918412,5.82501821 8.43527079,7.24637861 6.68472676,7.24637861 C4.93421821,7.24637861 3.51028714,5.82501821 3.51028714,4.07788422 Z"></path>
                    </g>
                </g>
            </g>
        </g>
    </g>
</svg>