<?xml version="1.0" encoding="UTF-8"?>
<svg width="24px" height="24px" viewBox="0 0 24 24" version="1.1" xmlns="http://www.w3.org/2000/svg"
    xmlns:xlink="http://www.w3.org/1999/xlink">
    <title>文档</title>
    <defs>
        <rect id="path-1" x="0" y="0" width="24" height="24"></rect>
    </defs>
    <g id="猎鹰智能体平台最终版" stroke="none" stroke-width="1" fill="none" fill-rule="evenodd">
        <g id="01猎鹰智能体平台_工作空间_项目开发" transform="translate(-28.000000, -704.000000)">
            <g id="编组-9备份-10" transform="translate(8.000000, 698.000000)">
                <g id="文档" transform="translate(20.000000, 6.000000)">
                    <mask id="mask-2" fill="white">
                        <use xlink:href="#path-1"></use>
                    </mask>
                    <g id="矩形"></g>
                    <g mask="url(#mask-2)" fill="#333333" fill-rule="nonzero">
                        <g transform="translate(3.500000, 2.000000)">
                            <path
                                d="M3.91991084,5.99999999 C3.55909301,5.99999999 3.26659237,5.70152316 3.26659237,5.33333333 C3.26659237,4.96514349 3.55909301,4.66666666 3.91991084,4.66666666 L13.0663695,4.66666666 C13.4271873,4.66666666 13.7196879,4.96514349 13.7196879,5.33333333 C13.7196879,5.70152316 13.4271873,5.99999999 13.0663695,5.99999999 L3.91991084,5.99999999 Z M3.91991084,10.6666667 C3.55909301,10.6666667 3.26659237,10.3681898 3.26659237,9.99999999 C3.26659237,9.63181015 3.55909301,9.33333332 3.91991084,9.33333332 L13.0663695,9.33333332 C13.4271873,9.33333332 13.7196879,9.63181015 13.7196879,9.99999999 C13.7196879,10.3681898 13.4271873,10.6666667 13.0663695,10.6666667 L3.91991084,10.6666667 Z M3.91991084,15.3333333 C3.55909301,15.3333333 3.26659237,15.0348565 3.26659237,14.6666666 C3.26659237,14.2984768 3.55909301,14 3.91991084,14 L6.53318474,14 C6.89400257,14 7.18650321,14.2984768 7.18650321,14.6666666 C7.18650321,15.0348565 6.89400257,15.3333333 6.53318474,15.3333333 L3.91991084,15.3333333 Z"
                                id="形状"></path>
                            <path
                                d="M14.5356827,16.0466666 C14.8081002,15.8051341 15.2208186,15.8346833 15.4575151,16.1126667 C15.6942116,16.39065 15.665254,16.8118008 15.3928366,17.0533333 L12.2516813,19.8366666 C12.132783,19.9420409 11.9805857,20 11.8231044,20 L2.02202068,20 C0.901579493,20 0,19.0546666 0,17.8973333 L0,2.10266666 C0,0.945333332 0.901579493,0 2.02202068,0 L14.9642596,0 C16.0847008,0 16.9862803,0.945333332 16.9862803,2.10266666 L16.9862803,13.8593333 C16.9862803,14.2275231 16.6937797,14.526 16.3329618,14.526 C15.972144,14.526 15.6796434,14.2275231 15.6796434,13.8593333 L15.6796434,2.10266666 C15.6796434,1.67333333 15.3549441,1.33333333 14.9642596,1.33333333 L2.02202068,1.33333333 C1.63133623,1.33333333 1.30663695,1.67333333 1.30663695,2.10266666 L1.30663695,17.8973333 C1.30663695,18.3266666 1.63133623,18.6666666 2.02202068,18.6666666 L11.5787633,18.6666666 L14.5356827,16.0466666 Z"
                                id="路径"></path>
                            <path
                                d="M12.413051,19.3153333 C12.413051,19.6835231 12.1205504,19.982 11.7597325,19.982 C11.3989147,19.982 11.1064141,19.6835231 11.1064141,19.3153333 L11.1064141,15.4353333 C11.1064141,14.2793333 12.0079935,13.3333333 13.1284347,13.3333333 L16.3466815,13.3333333 C16.7074994,13.3333333 17,13.6318101 17,14 C17,14.3681898 16.7074994,14.6666666 16.3466815,14.6666666 L13.1284347,14.6666666 C12.7377503,14.6666666 12.413051,15.0066666 12.413051,15.436 L12.413051,19.316 L12.413051,19.3153333 Z"
                                id="路径"></path>
                        </g>
                    </g>
                </g>
            </g>
        </g>
    </g>
</svg>
