<?xml version="1.0" encoding="UTF-8"?>
<svg width="1em" height="1em" viewBox="0 0 20 20" version="1.1" xmlns="http://www.w3.org/2000/svg" xmlns:xlink="http://www.w3.org/1999/xlink">
    <title>模型</title>
    <defs>
        <rect id="path-1" x="0" y="0" width="20" height="20"></rect>
    </defs>
    <g id="猎鹰智能体平台最终版" stroke="none" stroke-width="1" fill="none" fill-rule="evenodd">
        <g id="03猎鹰智能体平台_工作空间_MCP" transform="translate(-100.000000, -551.000000)">
            <g id="编组-6" transform="translate(80.000000, 0.000000)">
                <g id="编组-9备份-10" transform="translate(8.000000, 545.000000)">
                    <g id="模型" transform="translate(12.000000, 6.000000)">
                        <mask id="mask-2" fill="white">
                            <use xlink:href="#path-1"></use>
                        </mask>
                        <g id="矩形"></g>
                        <g id="空间" mask="url(#mask-2)" fill="#358AFF" fill-rule="nonzero">
                            <g transform="translate(2.000000, 2.000000)" id="形状">
                                <path d="M7.98963678,7.36992438 L7.96898281,7.36920528 C7.74309158,7.36147498 7.5248293,7.3084415 7.32033634,7.21118349 L2.10381207,4.91060901 C1.75399699,4.76445233 1.47916887,4.488858 1.34035927,4.13901679 C1.20396861,3.79510814 1.21643542,3.42135692 1.375899,3.08625723 C1.5245704,2.77416867 1.78748993,2.52733826 2.11627888,2.39106917 L7.07416329,0.191887527 C7.65380544,-0.0637112655 8.31967042,-0.0639735814 8.89952812,0.191168428 L13.874159,2.39682196 C14.2230437,2.54243932 14.4978718,2.81803365 14.6366814,3.16805463 C14.7730721,3.5117835 14.7606053,3.88553472 14.6011417,4.22045464 C14.4524703,4.53272298 14.1895508,4.77973316 13.8605757,4.91582247 L8.64200468,7.21657672 C8.46449214,7.30484601 8.2380427,7.36147498 8.01010468,7.36920528 L7.98963678,7.36992438 Z M7.98814821,1.12222064 C7.83946603,1.12229108 7.69252359,1.15312468 7.55720581,1.21264723 L2.5874128,3.41686256 C2.50982084,3.4490422 2.4592093,3.49614312 2.43129852,3.55510916 C2.39594487,3.62953581 2.40841168,3.69515351 2.42497208,3.73722075 C2.45102214,3.80283845 2.50442476,3.85515283 2.5755042,3.88481562 L7.81752032,6.19725522 C7.88097082,6.22709779 7.93511773,6.24201907 7.98926464,6.24633366 C8.04136476,6.24219885 8.0919763,6.22835621 8.13681961,6.20624394 L13.3911165,3.88930999 C13.4672199,3.85766967 13.5178314,3.81056875 13.5459283,3.75160271 C13.5812819,3.67717606 13.5688151,3.61155836 13.5522547,3.56949112 C13.5263907,3.50387343 13.472802,3.45155904 13.4017226,3.42189625 L8.41685775,1.21174835 C8.28217344,1.15278074 8.13601609,1.12222064 7.98814821,1.12222064 L7.98814821,1.12222064 Z M6.41435251,15.9969438 L6.40393249,15.9969438 C6.16892374,15.9969438 5.9352175,15.9401351 5.72811953,15.8326299 L0.836290636,13.6176281 C0.305985868,13.3501236 -0.00587055033,12.8471145 8.37488274e-05,12.2943079 L8.37488274e-05,6.61720849 C0.0030608984,6.10323315 0.288495114,5.62215654 0.744743287,5.35914643 C1.18647786,5.1173497 1.71975977,5.11285534 2.15423754,5.34080943 L7.04774108,7.55976627 C7.55162365,7.82169774 7.85901434,8.30007773 7.87985439,8.82250247 L7.88022653,14.5335793 C7.87427224,15.054386 7.5988859,15.5214402 7.14338201,15.7891245 C6.92121223,15.9169442 6.67429488,15.9877753 6.42458646,15.9964045 L6.41435251,15.9969438 L6.41435251,15.9969438 Z M1.46614384,6.29451261 C1.41850945,6.29451261 1.37087506,6.3060188 1.3282646,6.32938949 C1.22890224,6.38673756 1.16228851,6.49801798 1.16152707,6.62044443 L1.16152707,12.2997011 C1.16024172,12.4347118 1.23318189,12.5521046 1.35189573,12.612329 L6.24967893,14.8302072 C6.31164085,14.861488 6.35350702,14.8728138 6.39388461,14.8744318 C6.44524044,14.871016 6.49715448,14.8548363 6.54423066,14.8276904 C6.65029162,14.7654884 6.71727748,14.6524102 6.71857998,14.5276467 L6.71857998,8.84407541 C6.71411426,8.73800845 6.63949945,8.62133478 6.52506526,8.56164965 L1.60365094,6.32920971 C1.56168501,6.30636683 1.51431149,6.2944133 1.46614384,6.29451261 Z M9.60641507,16 L9.59208754,16 C9.34200698,15.9994607 9.09360106,15.9358205 8.87329199,15.8160907 C8.40122771,15.5394177 8.1256553,15.0723635 8.11951493,14.5573095 L8.11951493,8.84533383 C8.13142353,8.31499901 8.42913849,7.83500105 8.89673704,7.58044034 L8.93525392,7.56120447 L13.8795551,5.32031513 C14.2928207,5.10872053 14.8288936,5.12112497 15.2536957,5.36507899 C15.7099438,5.62377451 15.9966806,6.10539044 15.9996577,6.6206242 L15.9996577,12.3029371 C16.0115663,12.8375865 15.7119906,13.3405956 15.2174117,13.604145 L10.2444554,15.8513265 C10.0637797,15.9446294 9.83528345,16 9.60641507,16 L9.60641507,16 Z M9.4529058,8.56614401 C9.34907771,8.62906509 9.28376649,8.73908709 9.28078934,8.85773827 L9.28097541,14.5508376 C9.28246398,14.669309 9.34926378,14.782567 9.45960438,14.8474656 C9.49067838,14.8638251 9.54352279,14.8776677 9.59580898,14.8776677 L9.60381007,14.8776677 C9.64362944,14.8776677 9.6862399,14.8676003 9.7258732,14.8472858 L14.6912005,12.6042392 C14.7715835,12.5600146 14.8411744,12.4426219 14.8383833,12.3148022 L14.8381972,6.62386014 C14.837453,6.50556851 14.7704671,6.39249034 14.6634758,6.33154678 C14.5819763,6.28516496 14.4805671,6.28246834 14.397207,6.32453557 L9.4529058,8.56614401 Z"></path>
                            </g>
                        </g>
                    </g>
                </g>
            </g>
        </g>
    </g>
</svg>