<?xml version="1.0" encoding="UTF-8"?>
<svg width="1em" height="1em" viewBox="0 0 20 20" version="1.1" xmlns="http://www.w3.org/2000/svg" xmlns:xlink="http://www.w3.org/1999/xlink">
    <title>工作流</title>
    <defs>
        <rect id="path-1" x="0" y="0" width="20" height="20"></rect>
    </defs>
    <g id="猎鹰智能体平台最终版" stroke="none" stroke-width="1" fill="none" fill-rule="evenodd">
        <g id="01猎鹰智能体平台_工作空间_项目开发" transform="translate(-100.000000, -239.000000)">
            <g id="编组-6" transform="translate(80.000000, 0.000000)">
                <g id="编组-9备份-10" transform="translate(8.000000, 233.000000)">
                    <g id="工作流" transform="translate(12.000000, 6.000000)">
                        <mask id="mask-2" fill="white">
                            <use xlink:href="#path-1"></use>
                        </mask>
                        <g id="矩形"></g>
                        <g mask="url(#mask-2)" fill="#333333" fill-rule="nonzero" id="形状">
                            <g transform="translate(3.000000, 2.000000)">
                                <path d="M6.41666667,5.71428571 L12.25,5.71428571 C13.2160402,5.71320324 13.998895,4.94632512 14,4 L14,1.71428571 C13.998895,0.767960594 13.2160402,0.00108247143 12.25,0 L6.41666667,0 C5.45062644,0.00108247143 4.66777169,0.767960594 4.66666667,1.71428571 L4.66666667,2.28571429 L1.75,2.28571429 C0.783959773,2.28679676 0.00110502292,3.05367488 0,4 L0,6.85714286 C0.00110502292,7.80346798 0.783959773,8.5703461 1.75,8.57142857 L12.25,8.57142857 C12.5721661,8.57142857 12.8333333,8.82726586 12.8333333,9.14285714 L12.8333333,12 C12.8333333,12.3155913 12.5721661,12.5714286 12.25,12.5714286 L9.33333333,12.5714286 L9.33333333,12 C9.33222831,11.0536749 8.54937356,10.2867968 7.58333333,10.2857143 L1.75,10.2857143 C0.783959773,10.2867968 0.00110502292,11.0536749 0,12 L0,14.2857143 C0.00110502292,15.2320394 0.783959773,15.9989175 1.75,16 L7.58333333,16 C8.54937356,15.9989175 9.33222831,15.2320394 9.33333333,14.2857143 L9.33333333,13.7142857 L12.25,13.7142857 C13.2160402,13.7132032 13.998895,12.9463251 14,12 L14,9.14285714 C13.998895,8.19653202 13.2160402,7.4296539 12.25,7.42857143 L1.75,7.42857143 C1.4278339,7.42857143 1.16666667,7.17273414 1.16666667,6.85714286 L1.16666667,4 C1.16666667,3.68440871 1.4278339,3.42857143 1.75,3.42857143 L4.66666667,3.42857143 L4.66666667,4 C4.66777169,4.94632512 5.45062644,5.71320324 6.41666667,5.71428571 Z M8.16666667,14.2857143 C8.16666667,14.6013056 7.90549944,14.8571429 7.58333333,14.8571429 L1.75,14.8571429 C1.4278339,14.8571429 1.16666667,14.6013056 1.16666667,14.2857143 L1.16666667,12 C1.16666667,11.6844087 1.4278339,11.4285714 1.75,11.4285714 L7.58333333,11.4285714 C7.90549944,11.4285714 8.16666667,11.6844087 8.16666667,12 L8.16666667,14.2857143 Z M5.83333333,1.71428571 C5.83333333,1.39869443 6.09450056,1.14285714 6.41666667,1.14285714 L12.25,1.14285714 C12.5721661,1.14285714 12.8333333,1.39869443 12.8333333,1.71428571 L12.8333333,4 C12.8333333,4.31559129 12.5721661,4.57142857 12.25,4.57142857 L6.41666667,4.57142857 C6.09450056,4.57142857 5.83333333,4.31559129 5.83333333,4 L5.83333333,1.71428571 Z"></path>
                            </g>
                        </g>
                    </g>
                </g>
            </g>
        </g>
    </g>
</svg>