<?xml version="1.0" encoding="UTF-8"?>
<svg width="1em" height="1em" viewBox="0 0 20 20" version="1.1" xmlns="http://www.w3.org/2000/svg" xmlns:xlink="http://www.w3.org/1999/xlink">
    <title>成员管理</title>
    <defs>
        <rect id="path-1" x="0" y="0" width="20" height="20"></rect>
    </defs>
    <g id="猎鹰智能体平台最终版" stroke="none" stroke-width="1" fill="none" fill-rule="evenodd">
        <g id="01猎鹰智能体平台_工作空间_项目开发" transform="translate(-100.000000, -591.000000)">
            <g id="编组-6" transform="translate(80.000000, 0.000000)">
                <g id="编组-9备份-10" transform="translate(8.000000, 585.000000)">
                    <g id="成员管理" transform="translate(12.000000, 6.000000)">
                        <mask id="mask-2" fill="white">
                            <use xlink:href="#path-1"></use>
                        </mask>
                        <g id="矩形"></g>
                        <g id="团队成员" mask="url(#mask-2)" fill="#333333" fill-rule="nonzero">
                            <g transform="translate(2.000000, 3.000000)" id="形状">
                                <path d="M6.49593082,0.227572723 C4.1999232,0.227572723 2.33936529,2.10381645 2.33936529,4.41918102 C2.33936529,6.7345456 4.1999232,8.61078933 6.49593082,8.61078933 C8.79193843,8.61078933 10.6524963,6.73454562 10.6524963,4.41918102 C10.6524963,2.10381643 8.79193845,0.227572723 6.49593082,0.227572723 Z M6.49593082,7.41318695 C4.87289094,7.41318695 3.52695544,6.05590427 3.52695544,4.41918102 C3.52695544,2.78245778 4.87289094,1.4251751 6.49593082,1.4251751 C8.11897069,1.4251751 9.46490619,2.78245778 9.46490619,4.41918102 C9.46490619,6.05590427 8.15855703,7.41318695 6.49593082,7.41318695 L6.49593082,7.41318695 Z"></path>
                                <path d="M6.49593082,7.41318695 C3.13109207,7.41318695 0.32046204,10.0079921 0.00377134573,13.3213587 C-0.0358149864,13.6806394 0.241289376,14 0.59756642,14 C0.914257133,14 1.15177516,13.7604795 1.1913615,13.4411189 C1.46846586,10.7265535 3.72488714,8.65070942 6.45634448,8.65070942 C9.18780183,8.65070942 11.4442231,10.7664736 11.7213275,13.4411189 C11.7609138,13.7604795 11.9984318,14 12.3151225,14 C12.6713996,14 12.948504,13.6806394 12.9089176,13.3213587 C12.6713996,10.0079921 9.90035592,7.41318695 6.49593082,7.41318695 Z M12.3942952,7.41318695 C13.4631264,6.65470546 14.1756805,5.37726292 14.1756805,3.98006017 C14.1756805,2.18365661 13.0276766,0.626773526 11.4442231,0.0279723403 C11.0483597,-0.0917878969 10.6524963,0.18765265 10.6524963,0.586853435 C10.6524963,0.826373909 10.8108417,1.06589438 11.0483597,1.14573455 C12.1963636,1.58485542 12.9880903,2.66269756 12.9880903,3.94014008 C12.9880903,5.17766252 12.2359499,6.25550466 11.1671188,6.69462553 C10.850428,6.81438577 10.6524963,7.13374641 10.6524963,7.49302712 C10.6524963,7.8922279 10.9296007,8.25150861 11.3254641,8.33134878 C13.4631264,8.8503098 14.5319575,10.6866335 14.7694755,12.9221579 C14.8090619,13.2415185 15.0069936,13.481039 15.3236843,13.5209591 C15.7195477,13.5608791 16.0362384,13.2415185 15.996652,12.8423177 C15.759134,10.3672728 14.6507165,8.29142871 12.3942952,7.41318695 Z"></path>
                            </g>
                        </g>
                    </g>
                </g>
            </g>
        </g>
    </g>
</svg>