<?xml version="1.0" encoding="UTF-8"?>
<svg width="1em" height="1em" viewBox="0 0 20 20" version="1.1" xmlns="http://www.w3.org/2000/svg"
    xmlns:xlink="http://www.w3.org/1999/xlink">
    <title>项目开发</title>
    <defs>
        <rect id="path-1" x="0" y="0" width="20" height="20"></rect>
    </defs>
    <g id="猎鹰智能体平台最终版" stroke="none" stroke-width="1" fill="none" fill-rule="evenodd">
        <g id="03猎鹰智能体平台_工作空间_MCP" transform="translate(-100.000000, -84.000000)">
            <g id="编组-6" transform="translate(80.000000, 0.000000)">
                <g id="编组-9备份-10" transform="translate(8.000000, 78.000000)">
                    <g id="项目开发" transform="translate(12.000000, 6.000000)">
                        <mask id="mask-2" fill="white">
                            <use xlink:href="#path-1"></use>
                        </mask>
                        <g id="矩形"></g>
                        <g mask="url(#mask-2)" fill="#358AFF" fill-rule="nonzero" id="形状">
                            <g transform="translate(2.000000, 2.500000)">
                                <path
                                    d="M14.4,-6.73145749e-16 C14.8243464,-6.73145749e-16 15.2313126,0.166352898 15.5313708,0.462462969 C15.8314291,0.758573039 16,1.16018448 16,1.57894736 L16,13.4210526 C16,13.8398155 15.8314291,14.241427 15.5313709,14.537537 C15.2313126,14.8336471 14.8243464,15 14.4,15 L1.60000001,15 C1.17565362,15 0.768687357,14.8336471 0.468629148,14.537537 C0.168570939,14.241427 3.41060513e-16,13.8398155 3.41060513e-16,13.4210526 L3.41060513e-16,1.57894736 C3.41060513e-16,1.16018448 0.168570946,0.758573039 0.468629155,0.462462969 C0.768687363,0.166352898 1.17565363,-6.73145749e-16 1.60000001,-6.73145749e-16 L14.4,-6.73145749e-16 L14.4,-6.73145749e-16 Z M0.959200012,3.98368421 L0.959999999,13.4210526 C0.959889253,13.7394211 1.19991695,14.0080987 1.52000001,14.0478947 L1.60000001,14.0526316 L14.4,14.0526316 C14.7226134,14.0527409 14.9948734,13.8158714 15.0352,13.5 L15.04,13.4210526 L15.04,4.10447368 L1.28000001,4.10526316 C1.16149877,4.10534437 1.0471842,4.06202066 0.959200012,3.98368421 Z M9.10319999,6.07736842 C9.32370078,6.15747146 9.45302834,6.3833225 9.4088,6.61105264 L9.3872,6.68526315 L7.52,11.6842105 C7.43330589,11.915298 7.18155495,12.0421955 6.94101704,11.9760525 C6.70047913,11.9099096 6.55150383,11.6728206 6.5984,11.4307895 L6.61919999,11.3565789 L8.4872,6.35921052 C8.57871165,6.11378301 8.85445388,5.98797444 9.10319999,6.0781579 L9.10319999,6.07736842 Z M5.12080001,6.40815789 C5.29601754,6.55818774 5.33743625,6.81040854 5.21920001,7.00736841 L5.168,7.07605262 L3.4728,9 L5.136,10.8528947 C5.28965561,11.0241133 5.29739754,11.2792247 5.15440001,11.4592105 L5.09440001,11.5215789 C4.9208985,11.6732128 4.66238567,11.6808528 4.48000001,11.5397368 L4.4168,11.4805263 L2.4752,9.31736842 C2.33466688,9.16107076 2.31451412,8.93236336 2.42560001,8.75447369 L2.4728,8.69131578 L4.44400001,6.45473685 C4.61769922,6.25734262 4.92060894,6.23614233 5.12080001,6.40736842 L5.12080001,6.40815789 Z M10.8056,6.40815789 C10.901681,6.32558734 11.0270852,6.28410036 11.154184,6.29283726 C11.2812827,6.30157417 11.3996474,6.35981809 11.4832,6.45473685 L13.4544,8.69210526 L13.5008,8.75526315 C13.6110858,8.93278837 13.5909581,9.16057092 13.4512,9.31657894 L11.5096,11.4805263 L11.4464,11.5397368 C11.2640143,11.6808528 11.0055015,11.6732128 10.832,11.5215789 L10.7728,11.4592105 C10.6298025,11.2792247 10.6375444,11.0241133 10.7912,10.8528947 L12.4536,8.99921052 L10.7584,7.07605262 L10.708,7.00736841 C10.5891206,6.81041188 10.6302266,6.55771117 10.8056,6.40736842 L10.8056,6.40815789 Z M14.4,0.947368383 L1.60000001,0.947368383 C1.27738663,0.947259132 1.00512665,1.18412857 0.964799999,1.50000001 L0.959999999,1.57894736 L0.959200012,3.27947368 C1.0471842,3.20113724 1.16149877,3.15781353 1.28000001,3.15789474 L15.04,3.15710526 L15.04,1.57894736 C15.04,1.2605789 14.800083,0.991901298 14.48,0.952105263 L14.4,0.947368383 Z">
                                </path>
                            </g>
                        </g>
                    </g>
                </g>
            </g>
        </g>
    </g>
</svg>
