<?xml version="1.0" encoding="UTF-8"?>
<svg width="24px" height="24px" viewBox="0 0 24 24" version="1.1" xmlns="http://www.w3.org/2000/svg" xmlns:xlink="http://www.w3.org/1999/xlink">
    <title>工作空间</title>
    <defs>
        <rect id="path-1" x="0" y="0" width="24" height="24"></rect>
    </defs>
    <g id="猎鹰智能体平台最终版" stroke="none" stroke-width="1" fill="none" fill-rule="evenodd">
        <g id="01猎鹰智能体平台_工作空间_项目开发" transform="translate(-28.000000, -90.000000)">
            <g id="编组-9备份-10" transform="translate(8.000000, 84.000000)">
                <g id="工作空间" transform="translate(20.000000, 6.000000)">
                    <mask id="mask-2" fill="white">
                        <use xlink:href="#path-1"></use>
                    </mask>
                    <g id="矩形"></g>
                    <g mask="url(#mask-2)" fill-rule="nonzero" id="路径">
                        <g transform="translate(2.400000, 1.200000)">
                            <path d="M8.30272999,11.5730562 L0.448204198,6.97614575 C0.355885227,6.92007785 0.240872438,6.91923797 0.147768295,6.97395181 C0.0546641524,7.02866564 -0.00188606226,7.13032672 0,7.23951042 L0,16.4453025 C0,16.6607827 0.117983895,16.8523206 0.294887629,16.9600607 L8.14941342,21.5569712 C8.34990432,21.6766824 8.58577596,21.533029 8.58577596,21.2936065 L8.58577596,12.0878144 C8.59756954,11.8843054 8.47963372,11.6807963 8.30272999,11.5730562 Z" fill="#9AC5FF"></path>
                            <path d="M9.30518448,0.0807800213 L1.45065869,4.68966163 C1.25016779,4.80937284 1.25016779,5.09667975 1.45065869,5.20441984 L10.307639,10.3998864 C10.4845427,10.5076265 10.6024785,10.6991644 10.6024785,10.9146446 L10.6024785,21.2936065 C10.6024785,21.5210578 10.8501438,21.6647113 11.0506347,21.5569712 L18.9051604,16.9600607 C19.0820642,16.8523206 19.2,16.6607827 19.2,16.4453025 L19.2,5.87480262 C19.1976829,5.66254183 19.0857411,5.46710342 18.9051604,5.36004441 L9.90665718,0.0807800213 C9.72020581,-0.0269266738 9.49163585,-0.0269266738 9.30518448,0.0807800213 Z" fill="#358AFF"></path>
                        </g>
                    </g>
                </g>
            </g>
        </g>
    </g>
</svg>