<?xml version="1.0" encoding="UTF-8"?>
<svg width="1em" height="1em" viewBox="0 0 20 20" version="1.1" xmlns="http://www.w3.org/2000/svg"
    xmlns:xlink="http://www.w3.org/1999/xlink">
    <title>插件</title>
    <defs>
        <rect id="path-1" x="0" y="0" width="20" height="20"></rect>
    </defs>
    <g id="猎鹰智能体平台最终版" stroke="none" stroke-width="1" fill="none" fill-rule="evenodd">
        <g id="03猎鹰智能体平台_工作空间_MCP" transform="translate(-100.000000, -279.000000)">
            <g id="编组-6" transform="translate(80.000000, 0.000000)">
                <g id="编组-9备份-10" transform="translate(8.000000, 273.000000)">
                    <g id="插件" transform="translate(12.000000, 6.000000)">
                        <mask id="mask-2" fill="white">
                            <use xlink:href="#path-1"></use>
                        </mask>
                        <g id="矩形"></g>
                        <g id="家电_插头" mask="url(#mask-2)" fill="#358AFF" fill-rule="nonzero">
                            <g transform="translate(10.000000, 10.000000) rotate(-270.000000) translate(-10.000000, -10.000000) translate(3.000000, 3.000000)"
                                id="形状">
                                <path
                                    d="M1.13312034,7.11868509 L1.13312034,5.30365936 C1.13312034,5.20896237 1.20766773,5.13004821 1.2971246,5.13004821 L12.6879659,5.13004821 C12.7774228,5.13004821 12.8519702,5.20896237 12.8519702,5.30365936 L12.8519702,7.11868509 C12.8519702,7.45012457 13.1054313,7.71843272 13.4185304,7.71843272 C13.7316294,7.71843272 13.9850905,7.45012457 13.9850905,7.11868509 L13.9850905,5.30365936 C13.9850905,4.54608341 13.4036209,3.93055295 12.6879659,3.93055295 L1.2971246,3.93055295 C0.581469649,3.93055295 0,4.54608341 0,5.30365936 L0,7.11868509 C0,7.45012457 0.253461129,7.71843272 0.56656017,7.71843272 C0.879659212,7.71843272 1.13312034,7.45012457 1.13312034,7.11868509 Z M12.8370607,6.59785162 C12.8370607,10.0227262 10.2129925,12.7847219 6.99254526,12.7847219 C3.7571885,12.7847219 1.14802982,10.0069434 1.14802982,6.59785162 C1.14802982,6.26641214 0.89456869,5.99810399 0.581469649,5.99810399 C0.268370607,5.99810399 0.0149094782,6.26641214 0.0149094782,6.59785162 C0.0149094782,10.6856052 3.14589989,14 7.00745474,14 C10.8690096,14 14,10.6856052 14,6.59785162 C14,6.26641214 13.7465389,5.99810399 13.4334398,5.99810399 C13.0905218,5.99810399 12.8370607,6.26641214 12.8370607,6.59785162 L12.8370607,6.59785162 Z M2.75825346,0.647723814 L2.75825346,3.99368428 C2.75825346,4.32512376 3.01171459,4.59343191 3.32481363,4.59343191 C3.63791267,4.59343191 3.8913738,4.32512376 3.8913738,3.99368428 L3.8913738,0.647723814 C3.8913738,0.316284334 3.63791267,0.047976184 3.32481363,0.047976184 C3.01171459,0.0321933516 2.75825346,0.316284334 2.75825346,0.647723814 Z M10.0340788,0.600375317 L10.0340788,3.94633578 C10.0340788,4.27777526 10.2875399,4.54608341 10.600639,4.54608341 C10.913738,4.54608341 11.1671991,4.27777526 11.1671991,3.94633578 L11.1671991,0.600375317 C11.1671991,0.268935837 10.913738,0.00062768685 10.600639,0.00062768685 C10.3024494,-0.0151551455 10.0340788,0.268935837 10.0340788,0.600375317 Z">
                                </path>
                            </g>
                        </g>
                        <path
                            d="M6.40656809,8.35862878 L6.40656809,11.7045892 C6.40656809,12.0360287 6.66002922,12.3043369 6.97312826,12.3043369 C7.28622731,12.3043369 7.53968843,12.0360287 7.53968843,11.7045892 L7.53968843,8.35862878 C7.53968843,8.0271893 7.28622731,7.75888115 6.97312826,7.75888115 C6.66002922,7.74309832 6.40656809,8.0271893 6.40656809,8.35862878 Z"
                            id="路径" fill="#358AFF" mask="url(#mask-2)"></path>
                    </g>
                </g>
            </g>
        </g>
    </g>
</svg>
