<?xml version="1.0" encoding="UTF-8"?>
<svg width="1em" height="1em" viewBox="0 0 20 20" version="1.1" xmlns="http://www.w3.org/2000/svg" xmlns:xlink="http://www.w3.org/1999/xlink">
    <title>提示词</title>
    <g id="猎鹰智能体平台最终版" stroke="none" stroke-width="1" fill="none" fill-rule="evenodd">
        <g id="提示词">
            <rect id="矩形" x="0" y="0" width="20" height="20"></rect>
            <rect id="矩形" fill="#358AFF" x="8" y="17" width="4" height="1" rx="0.5"></rect>
            <path d="M10,2.5 C11.6571857,2.5 13.1575731,3.16705404 14.2436236,4.24574601 C15.3286162,5.3233872 16,6.81196995 16,8.45595915 C16,9.60112124 15.7009628,10.6773353 15.1588053,11.5919209 C14.5679033,12.5887354 13.6882818,13.3929309 12.5963887,13.8835617 L12.5963887,14.7656335 C12.5963887,14.9595197 12.5194085,15.1363017 12.3940107,15.2671808 C12.2696505,15.3969769 12.097732,15.4817464 11.9050758,15.4942014 L8.14285713,15.49534 C7.9454838,15.49534 7.76532634,15.4187567 7.6322064,15.2929344 C7.502774,15.1705975 7.41789519,15.001614 7.4058872,14.8119235 L7.40418626,13.8844419 C6.3125621,13.3938218 5.43282953,12.5893805 4.84171915,11.5925515 C4.29931959,10.6778668 4,9.60169954 4,8.45710201 C4,6.81261152 4.67133164,5.32377259 5.7562811,4.24598346 C6.84233531,3.16709687 8.3427638,2.5 10,2.5 Z" id="路径" stroke="#358AFF" fill-rule="nonzero"></path>
            <path d="M8.57665073,5.14283726 C8.62267658,5.16797996 8.65719595,5.20455115 8.68251017,5.24912231 L9.25553195,6.28911572 L10.3026199,6.85711213 C10.3886917,6.90379164 10.4422352,6.99342231 10.4422352,7.09082494 C10.4422352,7.18822757 10.3886917,7.27785824 10.3026199,7.32453774 L9.25553195,7.893677 L8.68251017,8.93367041 C8.63551223,9.01915898 8.54527012,9.07233974 8.44720304,9.07233974 C8.34913596,9.07233974 8.25889385,9.01915898 8.21189591,8.93367041 L7.63887413,7.893677 L6.59178616,7.32453774 C6.50512371,7.27803906 6.45111156,7.1880854 6.45111156,7.09025351 C6.45111156,6.99242162 6.50512371,6.90246796 6.59178616,6.85596928 L7.63887413,6.28797287 L8.21189591,5.24797945 C8.24613789,5.18590328 8.30385448,5.13992214 8.37229555,5.1201937 C8.44073661,5.10046526 8.51426972,5.10861309 8.57665073,5.14283726 L8.57665073,5.14283726 Z" id="路径" fill="#358AFF" fill-rule="nonzero"></path>
        </g>
    </g>
</svg>