<?xml version="1.0" encoding="UTF-8"?>
<svg width="24px" height="24px" viewBox="0 0 24 24" version="1.1" xmlns="http://www.w3.org/2000/svg" xmlns:xlink="http://www.w3.org/1999/xlink">
    <title>商店</title>
    <defs>
        <rect id="path-1" x="0" y="0" width="24" height="24"></rect>
    </defs>
    <g id="猎鹰智能体平台最终版" stroke="none" stroke-width="1" fill="none" fill-rule="evenodd">
        <g id="03猎鹰智能体平台_工作空间_MCP" transform="translate(-28.000000, -156.000000)">
            <g id="编组-9备份-10" transform="translate(8.000000, 150.000000)">
                <g id="商店" transform="translate(20.000000, 6.000000)">
                    <mask id="mask-2" fill="white">
                        <use xlink:href="#path-1"></use>
                    </mask>
                    <g id="矩形"></g>
                    <g mask="url(#mask-2)" fill-rule="nonzero">
                        <g transform="translate(3.000000, 4.000000)">
                            <path d="M11.7551476,9.04789163 C13.2475253,9.59964638 14.1836933,9.88335014 15.1430878,9.88303246 C15.3468671,9.88272184 15.5504399,9.87006644 15.75572,9.8447541 L15.7931721,15.3484362 C15.7931721,15.5439648 15.71705,15.7216347 15.5919361,15.8499917 C15.4723116,15.9727171 15.3074334,16.05 15.1244946,16.05 L2.8758268,16.05 C2.69288776,16.05 2.52800928,15.972717 2.4083845,15.8499914 C2.28327058,15.7216344 2.20714827,15.5439647 2.20714827,15.3484362 L2.20714726,9.88391627 C3.43638146,9.99129015 4.62829587,9.70553041 5.61297419,9.04789163 C7.1053483,9.59964638 8.04145811,9.88335018 8.99990626,9.88303315 C9.98334502,9.88318679 10.9418852,9.59107976 11.7551476,9.04789163 Z M14.5639237,0.6 C14.8222779,0.6 15.0697293,0.67233277 15.281931,0.802156518 C15.4939605,0.931874969 15.6707982,1.11899839 15.7881331,1.34880246 L17.2068792,4.12621521 C17.5183602,4.85342556 17.4364393,5.64474513 17.0794613,6.2688439 C16.731362,6.87742005 16.1178144,7.3281884 15.3446123,7.39090403 C14.900732,7.42769477 14.4641381,7.34364852 14.0759655,7.1583784 C13.6879182,6.97316803 13.3482572,6.68679363 13.0991852,6.32039035 C12.8686657,5.97898847 12.4833988,5.77420418 12.0710866,5.77420418 C11.6587744,5.77420418 11.2735075,5.97898847 11.0445479,6.31809164 C10.5995748,6.97056731 9.85014771,7.39912744 8.99999999,7.39912745 C8.14991978,7.39912747 7.40023806,6.9706723 6.95701197,6.32039035 C6.72649248,5.97898847 6.3412256,5.77420418 5.9289134,5.77420418 C5.5166012,5.77420418 5.13133432,5.97898847 4.90186473,6.31884067 C4.65174276,6.68679363 4.31208184,6.97316803 3.92403447,7.1583784 C3.53586189,7.34364852 3.09926799,7.42769477 2.65433395,7.39081763 C1.88218556,7.3281884 1.26863797,6.87742005 0.920538735,6.2688439 C0.563560717,5.64474513 0.481639845,4.85342556 0.79312077,4.12621521 L2.21191651,1.3487053 C2.32920176,1.11899839 2.50603947,0.931874969 2.71806903,0.802156518 C2.93027071,0.67233277 3.17772211,0.6 3.43607631,0.6 L14.5639237,0.6 Z" id="形状" stroke="#333333" stroke-width="1.2" fill="none"></path>
                            <path d="M13.0117465,14.0975993 L4.98793209,14.0975993 C4.63436098,14.0975993 4.3450755,13.8086483 4.3450755,13.4554859 C4.3450755,13.1023235 4.63436096,12.8133725 4.98793209,12.8133725 L13.0117465,12.8133725 C13.3653176,12.8133725 13.6546031,13.1023236 13.6546031,13.4554859 C13.6546031,13.8086483 13.3653176,14.0975993 13.0117465,14.0975993 L13.0117465,14.0975993 Z" id="路径" stroke="none" fill="#333333"></path>
                        </g>
                    </g>
                </g>
            </g>
        </g>
    </g>
</svg>