<?xml version="1.0" encoding="UTF-8"?>
<svg width="24px" height="24px" viewBox="0 0 24 24" version="1.1" xmlns="http://www.w3.org/2000/svg" xmlns:xlink="http://www.w3.org/1999/xlink">
    <title>商店</title>
    <defs>
        <rect id="path-1" x="0" y="0" width="24" height="24"></rect>
    </defs>
    <g id="猎鹰智能体平台最终版" stroke="none" stroke-width="1" fill="none" fill-rule="evenodd">
        <g id="01猎鹰智能体平台_工作空间_项目开发" transform="translate(-28.000000, -156.000000)">
            <g id="编组-9备份-10" transform="translate(8.000000, 150.000000)">
                <g id="商店" transform="translate(20.000000, 6.000000)">
                    <mask id="mask-2" fill="white">
                        <use xlink:href="#path-1"></use>
                    </mask>
                    <g id="矩形"></g>
                    <g mask="url(#mask-2)" fill-rule="nonzero">
                        <g transform="translate(3.000000, 4.000000)">
                            <path d="M17.7499209,3.87033841 L16.3224579,1.07586097 C15.9853329,0.415590992 15.305961,0 14.5639237,0 L3.43607631,0 C2.69403896,0 2.01466707,0.415590992 1.67754214,1.07586097 L0.250079099,3.87033841 C-0.542241629,5.68462977 0.630650187,7.82864635 2.60582703,7.98885364 C3.70912367,8.08029969 4.77618637,7.57100345 5.39807458,6.65614733 C5.51709886,6.47987107 5.71604708,6.37420418 5.9289134,6.37420418 C6.14177972,6.37420418 6.34072794,6.47987107 6.45975222,6.65614733 C7.01228745,7.46681547 7.94378663,7.99912747 9,7.99912745 C10.0562134,7.99912743 10.9873911,7.46681547 11.5402478,6.65614733 C11.6592721,6.47987107 11.8582203,6.37420418 12.0710866,6.37420418 C12.2839529,6.37420418 12.4829011,6.47987107 12.6019254,6.65614733 C13.2238136,7.57100345 14.2908763,8.08029969 15.394173,7.98885364 C17.3693498,7.82864635 18.5422416,5.68462977 17.7499209,3.87033841 Z" id="路径" fill="#9AC5FF"></path>
                            <path d="M11.6649619,8.37412167 C11.9033792,8.18755918 12.2384725,8.18755918 12.4768898,8.37412167 C13.2399777,8.96364963 14.1774705,9.28335219 15.1421732,9.28303316 C15.3217199,9.28275947 15.5010848,9.27160904 15.6792799,9.24964327 C16.0592081,9.20084264 16.3928507,9.50392017 16.3931721,9.88694079 L16.3931721,15.3484362 C16.3931721,16.0672821 15.8252083,16.65 15.1244946,16.65 L2.8758268,16.65 C2.17511313,16.65 1.60714827,16.0672821 1.60714827,15.3484362 L1.60714827,9.88501445 C1.60681241,9.70151582 1.68552086,9.52674006 1.82320453,9.40525395 C1.9608882,9.28376783 2.14423983,9.2273131 2.32650586,9.25028538 C3.46590091,9.39040055 4.61460299,9.07551883 5.52278876,8.37412167 C5.76120606,8.18755918 6.09629932,8.18755918 6.33471662,8.37412167 C7.09780456,8.96364963 8.0352973,9.28335219 9,9.28303316 C9.96457646,9.28318385 10.9019143,8.96349555 11.6649619,8.37412167 Z M13.0117465,12.8133725 L4.98793209,12.8133725 C4.63436096,12.8133725 4.3450755,13.1023235 4.3450755,13.4554859 C4.3450755,13.8086483 4.63436098,14.0975993 4.98793209,14.0975993 L13.0117465,14.0975993 C13.3653176,14.0975993 13.6546031,13.8086483 13.6546031,13.4554859 C13.6546031,13.1023236 13.3653176,12.8133725 13.0117465,12.8133725 Z" id="形状结合" fill="#358AFF"></path>
                        </g>
                    </g>
                </g>
            </g>
        </g>
    </g>
</svg>