<?xml version="1.0" encoding="UTF-8"?>
<svg width="20px" height="20px" viewBox="0 0 20 20" version="1.1" xmlns="http://www.w3.org/2000/svg" xmlns:xlink="http://www.w3.org/1999/xlink">
    <title>编组 3</title>
    <g id="猎鹰智能体平台定稿" stroke="none" stroke-width="1" fill="none" fill-rule="evenodd">
        <g id="06猎鹰智能体平台_工作空间_工作流_列表视角" transform="translate(-1394.000000, -82.000000)">
            <g id="编组-13" transform="translate(1384.000000, 74.000000)">
                <g id="编组-3" transform="translate(10.000000, 8.000000)">
                    <rect id="矩形" x="0" y="0" width="20" height="20"></rect>
                    <path d="M5,4 L8,4 C8.55228475,4 9,4.44771525 9,5 L9,8 C9,8.55228475 8.55228475,9 8,9 L5,9 C4.44771525,9 4,8.55228475 4,8 L4,5 C4,4.44771525 4.44771525,4 5,4 Z M12,4 L15,4 C15.5522847,4 16,4.44771525 16,5 L16,8 C16,8.55228475 15.5522847,9 15,9 L12,9 C11.4477153,9 11,8.55228475 11,8 L11,5 C11,4.44771525 11.4477153,4 12,4 Z M5,11 L8,11 C8.55228475,11 9,11.4477153 9,12 L9,15 C9,15.5522847 8.55228475,16 8,16 L5,16 C4.44771525,16 4,15.5522847 4,15 L4,12 C4,11.4477153 4.44771525,11 5,11 Z M12,11 L15,11 C15.5522847,11 16,11.4477153 16,12 L16,15 C16,15.5522847 15.5522847,16 15,16 L12,16 C11.4477153,16 11,15.5522847 11,15 L11,12 C11,11.4477153 11.4477153,11 12,11 Z" id="形状结合" stroke="#333333"></path>
                </g>
            </g>
        </g>
    </g>
</svg>