<?xml version="1.0" encoding="UTF-8"?>
<svg width="24px" height="24px" viewBox="0 0 24 24" version="1.1" xmlns="http://www.w3.org/2000/svg" xmlns:xlink="http://www.w3.org/1999/xlink">
    <title>申请上架</title>
    <g id="猎鹰智能体平台最终版" stroke="none" stroke-width="1" fill="none" fill-rule="evenodd">
        <g id="03猎鹰智能体平台_工作空间_MCP" transform="translate(-428.000000, -284.000000)">
            <g id="编组" transform="translate(304.000000, 130.000000)">
                <g id="申请上架" transform="translate(124.000000, 154.000000)">
                    <rect id="矩形" x="0" y="0" width="24" height="24"></rect>
                    <g id="上架" transform="translate(5.000000, 5.000000)" fill="#666666" fill-rule="nonzero">
                        <path d="M12.0848324,0 L1.91499689,0 C0.857446004,0 0,0.858081055 0,1.91679688 L0,12.0832031 C0,13.141748 0.857275266,14 1.91499689,14 L12.0850031,14 C13.142554,14 14,13.1419189 14,12.0832031 L14,1.91662598 C13.9998293,0.858081055 13.142554,0 12.0848324,0 L12.0848324,0 Z M13.0949181,12.0832031 C13.0949181,12.6406738 12.6417796,13.0942383 12.0848324,13.0942383 L1.91499689,13.0942383 C1.35804968,13.0942383 0.904911155,12.6406738 0.904911155,12.0832031 L0.904911155,1.91662598 C0.904911155,1.35915527 1.35804968,0.90559082 1.91499689,0.90559082 L12.0850031,0.90559082 C12.6419503,0.90559082 13.0950888,1.35915527 13.0950888,1.91662598 L13.0950888,12.0832031 L13.0949181,12.0832031 Z" id="形状"></path>
                        <path d="M10.1047843,5.77158203 L8.55226411,4.21760254 L8.55226411,9.87434082 C8.55226411,10.6368896 7.93470493,11.2550293 7.17287218,11.2550293 L3.57525275,11.2550293 C3.32529239,11.2550293 3.12279718,11.0523438 3.12279718,10.8021484 C3.12279718,10.5519531 3.32529239,10.3492676 3.57525275,10.3492676 L7.17287218,10.3492676 C7.43495494,10.3492676 7.64735295,10.1366699 7.64735295,9.87434082 L7.64735295,4.21760254 L6.09483274,5.77158203 C5.91811896,5.94846191 5.63162067,5.94846191 5.45490689,5.77158203 C5.2781931,5.59470215 5.2781931,5.30793457 5.45490689,5.13105469 L7.65452395,2.92937012 C7.9003866,2.68327637 8.29905972,2.68327637 8.54509311,2.92937012 L10.7447102,5.13122559 C10.921424,5.30810547 10.921424,5.59487305 10.7447102,5.77175293 C10.5679964,5.94863281 10.2814981,5.94846191 10.1047843,5.77158203 Z" id="路径"></path>
                    </g>
                </g>
            </g>
        </g>
    </g>
</svg>