<?xml version="1.0" encoding="UTF-8"?>
<svg width="24px" height="24px" viewBox="0 0 24 24" version="1.1" xmlns="http://www.w3.org/2000/svg" xmlns:xlink="http://www.w3.org/1999/xlink">
    <title>删除</title>
    <g id="猎鹰智能体平台最终版" stroke="none" stroke-width="1" fill="none" fill-rule="evenodd">
        <g id="01猎鹰智能体平台_工作空间_项目开发" transform="translate(-501.000000, -309.000000)">
            <g id="编组" transform="translate(304.000000, 130.000000)">
                <g id="删除" transform="translate(197.000000, 179.000000)">
                    <rect id="矩形" x="0" y="0" width="24" height="24"></rect>
                    <g transform="translate(5.000000, 5.000000)" fill="#666666" fill-rule="nonzero">
                        <path d="M8.49836822,11.0005759 C8.22153966,11.0005759 7.9984642,10.7775005 7.9984642,10.5006719 L7.9984642,4.99904012 C7.9984642,4.72221156 8.22153965,4.4991361 8.49836822,4.4991361 C8.7751968,4.4991361 8.99827224,4.72221155 8.99827224,4.99904012 L8.99827224,10.4979842 C8.99827224,10.7748128 8.77519678,11.0005759 8.49836822,11.0005759 Z" id="路径"></path>
                        <path d="M5.49894414,11.0005759 C5.22211558,11.0005759 4.99904012,10.7775005 4.99904012,10.5006719 L4.99904012,4.99904012 C4.99904012,4.72221156 5.22211558,4.4991361 5.49894416,4.4991361 C5.77577272,4.4991361 5.99884817,4.72221155 5.99884817,4.99904012 L5.99884817,10.4979842 C5.99884817,10.7748128 5.77577272,11.0005759 5.49894414,11.0005759 Z" id="路径"></path>
                        <path d="M13.500096,2.49952006 L11.0005759,2.49952006 L11.0005759,1.49971204 C11.0005759,0.671914 10.3340373,0 9.51161453,0 L4.49913612,0 C3.67133808,0 2.99942408,0.671914 2.99942408,1.49971204 L2.99942408,2.49952006 L0.499904018,2.49952006 C0.223075459,2.49952006 0,2.7225955 0,2.99942408 C0,3.27625265 0.223075443,3.4993281 0.499904018,3.4993281 L13.500096,3.4993281 C13.7769245,3.4993281 14,3.27625265 14,2.99942408 C14,2.7225955 13.7769246,2.49952006 13.500096,2.49952006 Z M3.99923212,1.49971204 C3.99923212,1.22557113 4.22499521,0.999808021 4.49913614,0.999808021 L9.51161453,0.999808021 C9.78575543,0.999808021 10.0007679,1.22019581 10.0007679,1.49971204 L10.0007679,2.49952006 L3.99923212,2.49952006 L3.99923212,1.49971204 L3.99923212,1.49971204 Z" id="形状"></path>
                        <path d="M10.5006719,14 L3.50201575,14 C2.67421771,14 2.00230371,13.328086 2.00230371,12.5002879 L2.00230371,4.9936648 C2.00230371,4.71683624 2.22537916,4.49376078 2.50220773,4.49376078 C2.77903631,4.49376078 3.00211175,4.71683622 3.00211175,4.9936648 L3.00211175,12.5002879 C3.00211175,12.7771165 3.22787485,13.000192 3.50201577,13.000192 L10.5033596,13.000192 C10.7801881,13.000192 11.0032636,12.7771165 11.0032636,12.5002879 L11.0032636,5.01247839 C11.0032636,4.73564983 11.226339,4.51257438 11.5031676,4.51257438 C11.7799962,4.51257438 12.0030716,4.73564982 12.0030716,5.01247839 L12.0030716,12.5002879 C12.000384,13.3253983 11.32847,14 10.5006719,14 Z" id="路径"></path>
                    </g>
                </g>
            </g>
        </g>
    </g>
</svg>