<?xml version="1.0" encoding="UTF-8"?>
<svg width="14px" height="14px" viewBox="0 0 14 14" version="1.1" xmlns="http://www.w3.org/2000/svg" xmlns:xlink="http://www.w3.org/1999/xlink">
    <title>确认</title>
    <g id="猎鹰智能体平台最终版" stroke="none" stroke-width="1" fill="none" fill-rule="evenodd">
        <g id="01猎鹰智能体平台_工作空间_项目开发" transform="translate(-757.000000, -155.000000)" fill-rule="nonzero">
            <g id="编组" transform="translate(620.000000, 130.000000)">
                <g id="确认" transform="translate(137.000000, 25.000000)">
                    <path d="M6.9359887,13.9997675 L6.93598909,13.9997675 C3.07015643,13.9643565 -0.035053171,10.8018217 0.000298883711,6.93598909 C0.0356549044,3.07015643 3.19818968,-0.035053171 7.06402233,0.000298883711 C10.9047598,0.0354255605 13.9998356,3.15880325 14,6.99970484 L14,6.99964579 C13.982211,10.883257 10.8196553,14.0171996 6.93604406,13.9997675 L6.9359887,13.9997675 Z" id="路径" fill="#33D643"></path>
                    <path d="M9.82024628,5.58747166 L6.38307707,9.02464087 L6.38307705,9.0246409 C6.33826623,9.09449946 6.28614861,9.1593911 6.22760443,9.21821895 C6.00315962,9.44266376 5.74022708,9.54402599 5.64038873,9.44418764 L3.8455867,7.64938561 C3.74574867,7.54954758 3.8455867,7.28661628 4.07155539,7.06216991 C4.29752409,6.8377251 4.55893275,6.73636287 4.65877109,6.83620122 L5.90369795,8.08112807 L9.10879982,4.8760262 L9.1087998,4.87602622 C9.30525837,4.67956765 9.62378204,4.67956765 9.82024061,4.87602638 C10.0166992,5.07248495 10.0166992,5.39100862 9.82024044,5.58746719 C9.82024044,5.58746719 9.82024044,5.58746719 9.82024044,5.58746719 L9.82024628,5.58747166 Z" id="路径" fill="#FFFFFF"></path>
                </g>
            </g>
        </g>
    </g>
</svg>