<?xml version="1.0" encoding="UTF-8"?>
<svg width="24px" height="24px" viewBox="0 0 24 24" version="1.1" xmlns="http://www.w3.org/2000/svg" xmlns:xlink="http://www.w3.org/1999/xlink">
    <title>编辑器</title>
    <g id="猎鹰智能体平台最终版" stroke="none" stroke-width="1" fill="none" fill-rule="evenodd">
        <g id="04猎鹰智能体平台_工作空间_卡片" transform="translate(-328.000000, -408.000000)">
            <g id="编组" transform="translate(304.000000, 130.000000)">
                <g id="编辑器" transform="translate(24.000000, 278.000000)">
                    <rect id="矩形" x="0" y="0" width="24" height="24"></rect>
                    <rect id="矩形" stroke="#666666" stroke-width="0.9" x="5.45" y="6.45" width="13.1" height="11.1" rx="1"></rect>
                    <g id="html编辑器" transform="translate(7.000000, 8.250000)" fill="#666666" fill-rule="nonzero">
                        <path d="M2.79897332,6.41531262 C2.72223111,6.41373665 2.64858671,6.38413495 2.5914102,6.33188167 L0.106942524,4.04715725 C0.0385328981,3.98811574 -0.000640894657,3.9011204 7.93424691e-06,3.80969994 C0.00519370782,3.71966154 0.0433612061,3.63490093 0.106942524,3.57224262 L2.62285916,1.33886033 C2.70625108,1.25713193 2.82687148,1.22868787 2.93695301,1.2647924 C3.04703454,1.30089692 3.12882018,1.39572609 3.14992166,1.51172621 C3.17102314,1.62772634 3.12803664,1.74618569 3.0379854,1.82019272 L0.792529807,3.80969994 L3.01282624,5.86980257 C3.07236309,5.93005467 3.10585173,6.01207238 3.10585173,6.09763324 C3.10585173,6.18319409 3.07236309,6.26521181 3.01282624,6.3254639 C2.95531392,6.38204134 2.87885462,6.41416515 2.79897332,6.41531262 L2.79897332,6.41531262 Z M7.14521931,6.41531262 C7.0561642,6.41349078 6.97186113,6.37396885 6.91249702,6.30621061 C6.79186933,6.17925843 6.79186933,5.97750145 6.91249702,5.85054928 L9.13279345,3.80969994 L6.93765619,1.82019272 C6.87811933,1.75994062 6.8446307,1.67792291 6.8446307,1.59236205 C6.8446307,1.5068012 6.87811933,1.42478349 6.93765619,1.36453139 C6.99562517,1.30416328 7.07496882,1.27014439 7.1577989,1.27014439 C7.24062897,1.27014439 7.31997263,1.30416328 7.3779416,1.36453139 L9.89385824,3.59791368 C9.9612788,3.6576417 10,3.74426766 10,3.835371 C10,3.92647434 9.9612788,4.0131003 9.89385824,4.07282831 L7.41568035,6.35755273 C7.33730377,6.41430323 7.23932232,6.43522823 7.14521931,6.41531262 L7.14521931,6.41531262 Z M4.29594372,7.49995819 L4.24562539,7.49995819 C4.08595753,7.46785918 3.97511018,7.31889469 3.98774393,7.15335562 L5.09474725,0.267093536 C5.12666787,0.0931976102 5.28824107,-0.0233417822 5.45955517,0.00396516201 C5.54180394,0.0165207286 5.615589,0.0624589967 5.66415101,0.131345667 C5.71271301,0.200232338 5.73192984,0.286220051 5.71743662,0.369777779 L4.6104333,7.23678656 C4.58276849,7.39116351 4.4497303,7.50247442 4.29594372,7.49995819 L4.29594372,7.49995819 Z" id="形状"></path>
                    </g>
                </g>
            </g>
        </g>
    </g>
</svg>