<?xml version="1.0" encoding="UTF-8"?>
<svg width="24px" height="24px" viewBox="0 0 24 24" version="1.1" xmlns="http://www.w3.org/2000/svg" xmlns:xlink="http://www.w3.org/1999/xlink">
    <title>更多</title>
    <g id="猎鹰智能体平台最终版" stroke="none" stroke-width="1" fill="none" fill-rule="evenodd">
        <g id="03猎鹰智能体平台_工作空间_MCP" transform="translate(-532.000000, -284.000000)">
            <g id="编组" transform="translate(304.000000, 130.000000)">
                <g id="更多" transform="translate(228.000000, 154.000000)">
                    <rect id="矩形" x="0" y="0" width="24" height="24"></rect>
                    <g transform="translate(5.000000, 11.000000)" fill="#666666" fill-rule="nonzero" id="形状">
                        <path d="M11.2,1.4 C11.2,0.62671875 11.8267187,0 12.6,0 C13.3732812,0 14,0.62671875 14,1.4 C14,2.17328125 13.3732812,2.8 12.6,2.8 C11.8267187,2.8 11.2,2.17328125 11.2,1.4 Z M5.6,1.4 C5.6,0.62671875 6.22671875,0 7,0 C7.77328125,0 8.4,0.62671875 8.4,1.4 C8.4,2.17328125 7.77328125,2.8 7,2.8 C6.22671875,2.8 5.6,2.17328125 5.6,1.4 Z M0,1.4 C0,0.62671875 0.62671875,0 1.4,0 C2.17328125,0 2.8,0.62671875 2.8,1.4 C2.8,2.17328125 2.17328125,2.8 1.4,2.8 C0.62671875,2.8 0,2.17328125 0,1.4 Z"></path>
                    </g>
                </g>
            </g>
        </g>
    </g>
</svg>