<?xml version="1.0" encoding="UTF-8"?>
<svg width="24px" height="24px" viewBox="0 0 24 24" version="1.1" xmlns="http://www.w3.org/2000/svg" xmlns:xlink="http://www.w3.org/1999/xlink">
    <title>开始服务</title>
    <g id="猎鹰智能体平台最终版" stroke="none" stroke-width="1" fill="none" fill-rule="evenodd">
        <g id="03猎鹰智能体平台_工作空间_MCP" transform="translate(-636.000000, -284.000000)">
            <g id="编组" transform="translate(620.000000, 130.000000)">
                <g id="开始服务" transform="translate(16.000000, 154.000000)">
                    <rect id="矩形" x="0" y="0" width="24" height="24"></rect>
                    <g id="开始" transform="translate(5.000000, 5.000000)" fill="#666666" fill-rule="nonzero">
                        <path d="M7,0 C3.134375,0 0,3.134375 0,7 C0,10.865625 3.134375,14 7,14 C10.865625,14 14,10.865625 14,7 C14,3.134375 10.865625,0 7,0 Z M11.2421875,11.2421875 C10.690625,11.79375 10.0484375,12.2265625 9.334375,12.528125 C8.5953125,12.840625 7.809375,13 6.9984375,13 C6.1875,13 5.4015625,12.8421875 4.6625,12.528125 C3.9484375,12.2265625 3.30625,11.79375 2.7546875,11.2421875 C2.203125,10.690625 1.7703125,10.0484375 1.46875,9.334375 C1.15625,8.5953125 0.996875,7.809375 0.996875,6.9984375 C0.996875,6.1875 1.1546875,5.4015625 1.46875,4.6625 C1.7703125,3.9484375 2.203125,3.30625 2.7546875,2.7546875 C3.30625,2.203125 3.9484375,1.7703125 4.6625,1.46875 C5.4015625,1.15625 6.1875,0.996875 6.9984375,0.996875 C7.809375,0.996875 8.5953125,1.1546875 9.334375,1.46875 C10.0484375,1.7703125 10.690625,2.203125 11.2421875,2.7546875 C11.79375,3.30625 12.2265625,3.9484375 12.528125,4.6625 C12.840625,5.4015625 13,6.1875 13,6.9984375 C13,7.809375 12.8421875,8.5953125 12.528125,9.334375 C12.2265625,10.05 11.79375,10.690625 11.2421875,11.2421875 Z" id="形状"></path>
                        <path d="M9.6828125,5.96875 L6.5328125,4.159375 C6.3421875,4.05 6.1390625,4 5.9421875,4 C5.3203125,4 4.75,4.496875 4.75,5.1921875 L4.75,8.8109375 C4.75,9.5046875 5.3203125,10.003125 5.9421875,10.003125 C6.1390625,10.003125 6.3421875,9.953125 6.5328125,9.84375 L9.6828125,8.034375 C10.4796875,7.575 10.4796875,6.4265625 9.6828125,5.96875 Z M9.184375,7.165625 L6.034375,8.975 C6.003125,8.99375 5.971875,9.0015625 5.9421875,9.0015625 C5.8796875,9.0015625 5.75,8.9546875 5.75,8.809375 L5.75,5.1921875 C5.75,5.046875 5.8796875,5 5.9421875,5 C5.9734375,5 6.003125,5.009375 6.034375,5.0265625 L9.184375,6.8359375 C9.246875,6.871875 9.2796875,6.928125 9.2796875,7 C9.2796875,7.071875 9.2484375,7.1296875 9.184375,7.165625 L9.184375,7.165625 Z" id="形状"></path>
                    </g>
                </g>
            </g>
        </g>
    </g>
</svg>