<?xml version="1.0" encoding="UTF-8"?>
<svg width="24px" height="24px" viewBox="0 0 24 24" version="1.1" xmlns="http://www.w3.org/2000/svg" xmlns:xlink="http://www.w3.org/1999/xlink">
    <title>停止服务</title>
    <g id="猎鹰智能体平台最终版" stroke="none" stroke-width="1" fill="none" fill-rule="evenodd">
        <g id="03猎鹰智能体平台_工作空间_MCP" transform="translate(-320.000000, -284.000000)">
            <g id="编组" transform="translate(304.000000, 130.000000)">
                <g id="停止服务" transform="translate(16.000000, 154.000000)">
                    <rect id="矩形" x="0" y="0" width="24" height="24"></rect>
                    <g id="已停用" transform="translate(5.000000, 5.000000)" fill="#666666" fill-rule="nonzero">
                        <path d="M7,2.45417721e-16 C10.8659932,2.45417721e-16 14,3.13400675 14,7 C14,10.8659932 10.8659932,14 7,14 C3.13400675,14 0,10.8659932 0,7 C0,3.13400675 3.13400675,2.45417721e-16 7,2.45417721e-16 L7,2.45417721e-16 Z M11.5728421,3.27968421 L3.27894736,11.5728421 C5.62304018,13.4838212 9.0330374,13.3107966 11.1716614,11.1723626 C13.3102853,9.03392864 13.4836129,5.6239468 11.5728421,3.27968421 Z M7,1.10599283 C4.70746015,1.10599283 2.62289876,2.43528714 1.65570162,4.51381275 C0.68850449,6.59233835 1.01413064,9.04309594 2.49052631,10.7969474 L10.7969474,2.49126316 C9.73513245,1.59469019 8.38970835,1.10383101 7,1.10599283 Z" id="形状"></path>
                    </g>
                </g>
            </g>
        </g>
    </g>
</svg>