<?xml version="1.0" encoding="UTF-8"?>
<svg width="24px" height="24px" viewBox="0 0 24 24" version="1.1" xmlns="http://www.w3.org/2000/svg" xmlns:xlink="http://www.w3.org/1999/xlink">
    <title>下架</title>
    <g id="猎鹰智能体平台定稿" stroke="none" stroke-width="1" fill="none" fill-rule="evenodd">
        <g id="06猎鹰智能体平台_工作空间_卡片" transform="translate(-744.000000, -408.000000)">
            <g id="编组" transform="translate(620.000000, 130.000000)">
                <g id="下架" transform="translate(124.000000, 278.000000)">
                    <rect id="矩形" x="0" y="0" width="24" height="24"></rect>
                    <path d="M8.94292113,7.625 L8.94292113,8.5 L7.52718918,8.5 L6.058,13.75 L9.21283236,13.75 L10.0862835,15.5 L13.9137165,15.5 L14.7871676,13.75 L17.941,13.75 L16.4728108,8.5 L15.0570789,8.5 L15.0570789,7.625 L17.1351514,7.625 L19,14.29185 L18.0334846,19 L5.96651538,19 L5,14.29185 L6.86484865,7.625 L8.94292113,7.625 Z M8.67300989,14.625 L5.96,14.625 L6.67862023,18.125 L17.3213798,18.125 L18.039,14.625 L15.3269901,14.625 L14.453539,16.375 L9.546461,16.375 L8.67300989,14.625 Z M15.4938044,5 L15.4938044,5.875 L15.0570789,5.875 C13.1873201,5.875 12.1699489,7.28839782 12.0195566,10.304531 L13.0013651,9.32192235 L13.6189883,9.94064078 L12,11.561 L11.999,11.562 L11.5632744,12 L11.127,11.562 L11.126,11.561 L9.50756063,9.94064078 L10.1251838,9.32192235 L11.1443113,10.341709 C11.3082555,6.84626454 12.6074485,5 15.0570789,5 L15.4938044,5 Z" id="Combined-Shape" fill="#666666"></path>
                </g>
            </g>
        </g>
    </g>
</svg>