<?xml version="1.0" encoding="UTF-8"?>
<svg width="24px" height="24px" viewBox="0 0 24 24" version="1.1" xmlns="http://www.w3.org/2000/svg" xmlns:xlink="http://www.w3.org/1999/xlink">
    <title>创建副本</title>
    <g id="猎鹰智能体平台定稿" stroke="none" stroke-width="1" fill="none" fill-rule="evenodd">
        <g id="06猎鹰智能体平台_工作空间_卡片" transform="translate(-1276.000000, -408.000000)">
            <g id="编组" transform="translate(1252.000000, 130.000000)">
                <g id="创建副本" transform="translate(24.000000, 278.000000)">
                    <rect id="矩形" x="0" y="0" width="24" height="24"></rect>
                    <g id="文档" transform="translate(6.000000, 5.000000)" fill="#666666" fill-rule="nonzero">
                        <path d="M4.375,3.93333333 C4.16789322,3.93333333 4,3.72439955 4,3.46666667 C4,3.20893378 4.16789322,3 4.375,3 L9.625,3 C9.83210678,3 10,3.20893378 10,3.46666667 C10,3.72439955 9.83210678,3.93333333 9.625,3.93333333 L4.375,3.93333333 Z" id="路径"></path>
                        <path d="M10.2604819,11.2326667 C10.4527766,11.0635939 10.7441072,11.0842783 10.9111871,11.2788667 C11.078267,11.473455 11.0578264,11.7682605 10.8655317,11.9373333 L8.64824565,13.8856666 C8.56431739,13.9594286 8.45688402,14 8.34572076,14 L1.42730871,14 C0.636409054,14 0,13.3382666 0,12.5281333 L0,1.47186666 C0,0.661733332 0.636409054,0 1.42730871,0 L10.5630068,0 C11.3539065,0 11.9903155,0.661733332 11.9903155,1.47186666 L11.9903155,9.70153332 C11.9903155,9.9592662 11.7838445,10.1682 11.5291495,10.1682 C11.2744546,10.1682 11.0679836,9.9592662 11.0679836,9.70153332 L11.0679836,1.47186666 C11.0679836,1.17133333 10.8387841,0.933333332 10.5630068,0.933333332 L1.42730871,0.933333332 C1.15153146,0.933333332 0.922331963,1.17133333 0.922331963,1.47186666 L0.922331963,12.5281333 C0.922331963,12.8286667 1.15153146,13.0666667 1.42730871,13.0666667 L8.17324469,13.0666667 L10.2604819,11.2326667 Z" id="路径"></path>
                        <path d="M8.76215365,13.5207333 C8.76215365,13.7784662 8.5556826,13.9874 8.30098766,13.9874 C8.04629273,13.9874 7.83982168,13.7784662 7.83982168,13.5207333 L7.83982168,10.8047333 C7.83982168,9.99553332 8.47623074,9.33333332 9.26713039,9.33333332 L11.538834,9.33333332 C11.793529,9.33333332 12,9.5422671 12,9.79999999 C12,10.0577329 11.793529,10.2666667 11.538834,10.2666667 L9.26713039,10.2666667 C8.99135314,10.2666667 8.76215365,10.5046667 8.76215365,10.8052 L8.76215365,13.5212 L8.76215365,13.5207333 Z" id="路径"></path>
                    </g>
                    <circle id="椭圆形" fill="#666666" cx="8.5" cy="8.5" r="1"></circle>
                    <path d="M10.375,11.9333333 C10.1678932,11.9333333 10,11.7243995 10,11.4666667 C10,11.2089338 10.1678932,11 10.375,11 L15.625,11 C15.8321068,11 16,11.2089338 16,11.4666667 C16,11.7243995 15.8321068,11.9333333 15.625,11.9333333 L10.375,11.9333333 Z" id="路径" fill="#666666" fill-rule="nonzero"></path>
                    <rect id="矩形" fill="#666666" x="10" y="14" width="3" height="1" rx="0.5"></rect>
                    <circle id="椭圆形" fill="#666666" cx="8.5" cy="11.5" r="1"></circle>
                    <circle id="椭圆形" fill="#666666" cx="8.5" cy="14.5" r="1"></circle>
                </g>
            </g>
        </g>
    </g>
</svg>