<?xml version="1.0" encoding="UTF-8"?>
<svg width="1em" height="1em" viewBox="0 0 20 20" version="1.1" xmlns="http://www.w3.org/2000/svg" xmlns:xlink="http://www.w3.org/1999/xlink">
    <title>MCP市场</title>
    <defs>
        <rect id="path-1" x="0" y="0" width="20" height="20"></rect>
    </defs>
    <g id="猎鹰智能体平台最终版" stroke="none" stroke-width="1" fill="none" fill-rule="evenodd">
        <g id="01猎鹰智能体平台_工作空间_项目开发" transform="translate(-100.000000, -159.000000)">
            <g id="编组-6" transform="translate(80.000000, 0.000000)">
                <g id="编组-9备份-10" transform="translate(8.000000, 153.000000)">
                    <g id="MCP市场" transform="translate(12.000000, 6.000000)">
                        <mask id="mask-2" fill="white">
                            <use xlink:href="#path-1"></use>
                        </mask>
                        <g id="矩形"></g>
                        <g id="数据模型-(1)" mask="url(#mask-2)" fill="#333333" fill-rule="nonzero">
                            <g transform="translate(2.500000, 2.000000)" id="形状">
                                <path d="M3.25672847,4.39740197 L6.32545212,2.71157084 C6.1192533,2.51527544 5.96561496,2.26894395 5.88677423,1.99374549 L2.78368411,3.69882127 C3.00201227,3.88549435 3.1657584,4.12605244 3.25672847,4.39740197 Z M7.49795523,9.53187395 C7.34836001,9.53187395 7.2028079,9.5126293 7.06534202,9.47798893 L7.06534202,12.8823671 C7.20482945,12.8458023 7.35240312,12.8265576 7.5040199,12.8265576 C7.65361513,12.8265576 7.79916724,12.8458023 7.93865468,12.8823671 L7.93865468,9.47606447 C7.79714568,9.5126293 7.64957201,9.53187395 7.49795523,9.53187395 Z M2.10241937,9.70507578 L2.10241937,6.40654318 C1.96293193,6.44310801 1.81737982,6.46235266 1.66576304,6.46235266 C1.51414626,6.46235266 1.36859415,6.44310801 1.22910671,6.40654318 L1.22910671,9.70507578 C1.36859415,9.66851095 1.51414626,9.6492663 1.66576304,9.6492663 C1.81737982,9.6492663 1.96293193,9.66851095 2.10241937,9.70507578 Z M6.31534434,6.82992543 L3.29918116,5.19797931 C3.23853445,5.47895117 3.09904701,5.73298051 2.90295598,5.93889824 L5.88475268,7.54967525 C5.95955029,7.27447679 6.11116707,7.02622083 6.31534434,6.82992543 L6.31534434,6.82992543 Z M11.543091,5.28458023 L8.68258768,6.83184989 C8.88676495,7.03006976 9.03838173,7.27640125 9.11317934,7.55352418 L11.9817688,6.00240558 C11.7716257,5.80412972 11.6202859,5.55648653 11.543091,5.28458023 L11.543091,5.28458023 Z M11.739182,11.606447 L8.67652301,13.2903536 C8.88272184,13.486649 9.03636017,13.7329805 9.11317934,14.008179 L12.1980755,12.3127255 C11.985812,12.1222035 11.8240874,11.879721 11.739182,11.606447 L11.739182,11.606447 Z M12.9015773,6.44310801 L12.9015773,9.62424826 C13.0410648,9.58768343 13.1866169,9.56843878 13.3382337,9.56843878 C13.4898504,9.56843878 13.6354025,9.58768343 13.77489,9.62424826 L13.77489,6.34688477 C13.5828421,6.42001443 13.3746217,6.46042819 13.154272,6.46042819 C13.067345,6.46042819 12.9824396,6.4546548 12.9015773,6.44310801 Z M6.32949524,13.2903536 L3.28503026,11.6179937 C3.21225421,11.8951167 3.06468054,12.1452971 2.86050328,12.343517 L5.89283891,14.0101034 C5.96965807,13.7329805 6.12127486,13.486649 6.32949524,13.2903536 Z M8.67450146,2.70964638 L11.5956514,4.31464999 C11.702794,4.04714939 11.880691,3.81428915 12.1111485,3.63916286 L9.11115779,1.98989656 C9.03231706,2.26701949 8.88070028,2.51335097 8.67450146,2.70964638 Z M7.93865468,8.57541496 L7.93865468,9.47606447 C8.6441781,9.29131585 9.16573983,8.67548713 9.16573983,7.94611499 C9.16573983,7.81140245 9.14754581,7.68053885 9.1152009,7.55352418 L8.29040561,8 C8.2722116,8.23863363 8.13676727,8.44840029 7.93865468,8.57541496 Z M7.49795523,7.18980034 C7.62935644,7.18980034 7.75469298,7.22059177 7.86385706,7.27447679 L8.68258768,6.83184989 C8.37935412,6.54125571 7.9608918,6.35843156 7.49795523,6.35843156 C7.03704022,6.35843156 6.6185779,6.53740678 6.31534434,6.82800096 L7.13609651,7.27255232 C7.2452606,7.22059177 7.36857558,7.18980034 7.49795523,7.18980034 L7.49795523,7.18980034 Z M6.70550485,7.99422661 L5.88475268,7.54967525 C5.85038621,7.67668992 5.83219219,7.80947799 5.83219219,7.94419052 C5.83219219,8.67741159 6.35577548,9.29516478 7.06736357,9.47606447 L7.06736357,8.57733943 C6.86116475,8.45417368 6.72167731,8.24055809 6.70550485,7.99422661 Z"></path>
                                <path d="M7.49795523,8.70242964 C7.33825222,8.70242964 7.19067855,8.65816695 7.06534202,8.58118836 L7.06534202,9.4799134 C7.2028079,9.51455376 7.34836001,9.53379841 7.49795523,9.53379841 C7.64957201,9.53379841 7.79714568,9.51455376 7.93865468,9.47798893 L7.93865468,8.57733943 C7.81129658,8.65624248 7.66170136,8.70242964 7.49795523,8.70242964 Z M7.86385706,7.27447679 C8.11857326,7.40149146 8.29242717,7.65359634 8.29242717,7.94611499 C8.29242717,7.96343517 8.29242717,7.98267982 8.29040561,8 L9.11317934,7.55544864 C9.03838173,7.27832572 8.88878651,7.03006976 8.68258768,6.83377436 L7.86385706,7.27447679 L7.86385706,7.27447679 Z M6.7034833,7.94611499 C6.7034833,7.65359634 6.87935876,7.39764253 7.13609651,7.27255232 L6.31534434,6.82800096 C6.10589894,7.02737037 5.95649793,7.2765973 5.88273112,7.54967525 L6.7034833,7.99422661 L6.7034833,7.94611499 Z M7.93865468,13.6944912 L8.67854457,13.2884292 C8.47638886,13.0979071 8.22167267,12.9554968 7.93865468,12.8823671 L7.93865468,13.6944912 Z M7.06534202,13.6944912 L7.06534202,12.8823671 C6.78232402,12.9554968 6.52962939,13.0979071 6.32747368,13.2884292 L7.06534202,13.6944912 Z M7.5040199,15.1705557 C7.08151447,15.1705557 6.73582821,14.8549435 6.71156953,14.4585037 L5.89283891,14.008179 C5.85645088,14.1371181 5.83825686,14.2737551 5.83825686,14.414241 C5.83825686,15.2898725 6.58623299,16 7.5040199,16 C8.42180682,16 9.16978294,15.287948 9.16978294,14.414241 C9.16978294,14.2737551 9.14956737,14.1371181 9.11317934,14.008179 L8.29647028,14.4585037 C8.27423315,14.8549435 7.92652533,15.1705557 7.5040199,15.1705557 Z"></path>
                                <path d="M8.67652301,13.2884292 L7.93663312,13.6944912 L7.93663312,12.8823671 C7.79714568,12.8458023 7.65159357,12.8265576 7.50199835,12.8265576 C7.35038156,12.8265576 7.20482945,12.8458023 7.06332046,12.8823671 L7.06332046,13.6944912 L6.32949524,13.2903536 C6.12329641,13.486649 5.96965807,13.7329805 5.89283891,14.0101034 L6.71156953,14.4604282 C6.71156953,14.4450325 6.70954797,14.4315612 6.70954797,14.4161655 C6.70954797,13.9985567 7.06534202,13.6598509 7.5040199,13.6598509 C7.94269779,13.6598509 8.29849184,13.9985567 8.29849184,14.4161655 C8.29849184,14.4296368 8.29849184,14.4450325 8.29647028,14.4585037 L9.11317934,14.008179 C9.03838173,13.7310561 8.88474339,13.4847246 8.67652301,13.2884292 L8.67652301,13.2884292 Z M1.6677846,11.9932644 C1.22910671,11.9932644 0.873312661,11.6545586 0.873312661,11.2369497 C0.873312661,10.9732981 1.01684321,10.7404378 1.23112827,10.6057253 L1.23112827,9.70700024 C0.523583285,9.88982439 -7.35438184e-16,10.5075776 -7.35438184e-16,11.2388742 C-7.35438184e-16,12.1145057 0.747976122,12.8246331 1.66576304,12.8246331 C2.13274273,12.8246331 2.55524816,12.6398845 2.85848172,12.343517 L2.04985889,11.8989656 C1.93665169,11.958624 1.80525048,11.9932644 1.6677846,11.9932644 Z M2.10241937,9.70507578 L2.10241937,10.6038008 C2.29851041,10.7269666 2.43395473,10.9290354 2.45619186,11.1618956 L3.28300871,11.6160693 C3.31535362,11.494828 3.33153193,11.3658889 3.33153193,11.2350253 C3.33354763,10.5056531 2.81198591,9.88789993 2.10241937,9.70507578 L2.10241937,9.70507578 Z"></path>
                                <path d="M1.6677846,10.4806351 C1.82950916,10.4806351 1.97910439,10.5268222 2.10444093,10.6057253 L2.10444093,9.70700024 C1.96495349,9.67043541 1.81940138,9.65119076 1.6677846,9.65119076 C1.51616781,9.65119076 1.3706157,9.67043541 1.23112827,9.70700024 L1.23112827,10.6057253 C1.3564648,10.5248978 1.50606003,10.4806351 1.6677846,10.4806351 Z M2.45821342,11.1618956 C2.46023497,11.1869136 2.46225653,11.2100072 2.46225653,11.2350253 C2.46225653,11.519846 2.29648885,11.768102 2.05188044,11.8970411 L2.86050328,12.3415925 C3.06468054,12.1433726 3.21225421,11.8931922 3.28503026,11.6160693 L2.45821342,11.1618956 L2.45821342,11.1618956 Z M2.90295598,5.93889824 L2.10444093,5.50589367 L2.10444093,6.40461872 C2.41576072,6.32571566 2.69069248,6.16021169 2.90295598,5.93889824 Z M0.871291104,4.87466923 C0.871291104,4.45706038 1.22708515,4.11835458 1.66576304,4.11835458 C1.76077622,4.11835458 1.85376785,4.1337503 1.93867325,4.16454174 L2.78368411,3.69882127 C2.48853677,3.44286745 2.0963547,3.28698581 1.66576304,3.28698581 C0.745954565,3.28698581 -7.35438184e-16,3.99903777 -7.35438184e-16,4.87274477 C-7.35438184e-16,5.60404138 0.521561728,6.22179456 1.23112827,6.40461872 L1.23112827,5.50589367 C1.01482166,5.37118114 0.871291104,5.1383209 0.871291104,4.87466923 Z M3.25672847,4.39740197 L2.54514037,4.78806832 L3.29918116,5.19605485 C3.32141829,5.09213375 3.33354763,4.98436372 3.33354763,4.87274477 C3.33354763,4.70916526 3.30726739,4.54943469 3.25672847,4.39740197 Z"></path>
                                <path d="M2.10241937,6.40654318 L2.10241937,5.50781814 C1.97708283,5.58672119 1.82748761,5.63290835 1.66576304,5.63290835 C1.50403847,5.63290835 1.35444325,5.58672119 1.22910671,5.50781814 L1.22910671,6.40654318 C1.36859415,6.44310801 1.51414626,6.46235266 1.66576304,6.46235266 C1.81737982,6.46042819 1.96293193,6.44118355 2.10241937,6.40654318 Z M2.46225653,4.87466923 C2.46225653,5.1383209 2.31872598,5.37118114 2.10444093,5.50589367 L2.90295598,5.93889824 C3.09904701,5.73298051 3.23853445,5.47895117 3.29918116,5.19797931 L2.54514037,4.78999278 L3.25672847,4.39932644 C3.1657584,4.12797691 3.00201227,3.88741881 2.78570566,3.70074573 L1.9406948,4.1664662 C2.24392837,4.2703873 2.46225653,4.54751022 2.46225653,4.87466923 Z M8.67450146,2.70964638 L7.85779239,2.26124609 C7.75064987,2.31320664 7.62733489,2.34399808 7.49795523,2.34399808 C7.37059714,2.34399808 7.24930371,2.3151311 7.14418274,2.26317056 L6.32545212,2.71349531 C6.62666413,2.99831609 7.04108333,3.17344239 7.49795523,3.17344239 C7.95684869,3.17151792 8.37126789,2.99446716 8.67450146,2.70964638 Z M7.49795523,0.829444311 C7.92046066,0.829444311 8.26614692,1.14505653 8.29040561,1.53957181 L9.10913623,1.98989656 C9.14552426,1.86095742 9.16371827,1.72624489 9.16371827,1.58575896 C9.16371827,0.710127496 8.41574215,0 7.49795523,0 C6.58016831,0 5.83219219,0.712051961 5.83219219,1.58575896 C5.83219219,1.72624489 5.85240776,1.86288189 5.88879579,1.99374549 L6.70550485,1.5453452 C6.72774198,1.146981 7.0754498,0.829444311 7.49795523,0.829444311 L7.49795523,0.829444311 Z"></path>
                                <path d="M8.29242717,1.58575896 C8.29242717,1.88020207 8.11453014,2.13615588 7.85779239,2.25932163 L8.67450146,2.70772191 C8.88070028,2.51142651 9.03433862,2.26509502 9.11115779,1.9879721 L8.29040561,1.53957181 C8.29242717,1.55496752 8.29242717,1.57036324 8.29242717,1.58575896 L8.29242717,1.58575896 Z M6.32545212,2.71157084 L7.14418274,2.26124609 C6.88340188,2.13615588 6.7034833,1.88020207 6.7034833,1.5838345 C6.7034833,1.57036324 6.7034833,1.55689199 6.70550485,1.54342074 L5.88879579,1.99182102 C5.96561496,2.26894395 6.11723174,2.5171999 6.32545212,2.71157084 L6.32545212,2.71157084 Z M11.543091,5.28458023 L12.3598,4.8438778 C12.3618216,4.80923743 12.3658647,4.77459707 12.3719294,4.74188116 L11.5956514,4.31464999 C11.5269185,4.48977628 11.4885089,4.67837383 11.4885089,4.87466923 C11.4864874,5.01707962 11.5067029,5.15371662 11.543091,5.28458023 L11.543091,5.28458023 Z M13.154272,4.11835458 C13.5929498,4.11835458 13.9487439,4.45706038 13.9487439,4.87466923 C13.9487439,5.05364446 13.8840541,5.21722396 13.77489,5.3461631 L13.77489,6.34688477 C14.3874218,6.11210007 14.8220566,5.54053404 14.8220566,4.87466923 C14.8220566,3.99903777 14.0740804,3.28891027 13.1562935,3.28891027 C12.7620899,3.28891027 12.3982096,3.41977388 12.1131701,3.63916286 L13.0087198,4.13182584 C13.0531941,4.12220351 13.103733,4.11835458 13.154272,4.11835458 L13.154272,4.11835458 Z M11.9817688,6.00240558 C12.2263773,6.23334135 12.5457833,6.39114746 12.8995558,6.44310801 L12.8995558,5.59249459 C12.8672109,5.58287226 12.8368875,5.57132548 12.8065641,5.55785422 L11.9817688,6.00240558 Z"></path>
                                <path d="M11.5936299,4.31464999 L12.3699078,4.74188116 C12.428533,4.4339668 12.6812276,4.18955978 13.0046767,4.13182584 L12.1091269,3.63916286 C11.8775514,3.81694983 11.6996682,4.05004101 11.5936299,4.31464999 L11.5936299,4.31464999 Z M13.154272,5.63098388 C13.0653234,5.63098388 12.980418,5.61751263 12.9015773,5.59249459 L12.9015773,6.44310801 C12.9844612,6.4546548 13.067345,6.46042819 13.154272,6.46042819 C13.3726001,6.46042819 13.5828421,6.42001443 13.77489,6.34688477 L13.77489,5.3461631 C13.6273163,5.51936493 13.4029235,5.63098388 13.154272,5.63098388 Z M12.3577785,4.87466923 L12.3577785,4.8438778 L11.5410694,5.28458023 C11.6178886,5.55977869 11.7735485,5.80611018 11.9797473,6.00240558 L12.8065641,5.55592976 C12.5417402,5.43276401 12.3577785,5.17488573 12.3577785,4.87466923 Z M12.9015773,10.5229733 L12.9015773,9.62424826 C12.1940323,9.80707241 11.6704491,10.4248256 11.6704491,11.1561222 C11.6704491,11.3120038 11.6947077,11.4640366 11.739182,11.606447 L12.5417402,11.1657445 L12.5417402,11.1561222 C12.5417402,10.8905461 12.6852707,10.6596103 12.9015773,10.5229733 Z M13.7728684,9.62424826 L13.7728684,10.5229733 C13.989175,10.6576858 14.130684,10.8905461 14.130684,11.1541977 C14.130684,11.5718066 13.77489,11.9105124 13.3362121,11.9105124 C13.2290696,11.9105124 13.1259702,11.8893433 13.030957,11.8527784 L12.1960539,12.3108011 C12.4952443,12.5763772 12.8955127,12.7399567 13.3341905,12.7399567 C14.253999,12.7399567 14.9999769,12.0279047 14.9999769,11.1541977 C15.0039967,10.4248256 14.482435,9.80707241 13.7728684,9.62424826 L13.7728684,9.62424826 Z"></path>
                                <path d="M12.9015773,9.62424826 L12.9015773,10.5229733 C13.0269139,10.4440702 13.1765091,10.3978831 13.3382337,10.3978831 C13.4999582,10.3978831 13.6495534,10.4440702 13.77489,10.5229733 L13.77489,9.62424826 C13.6354025,9.58768343 13.4898504,9.56843878 13.3382337,9.56843878 C13.1866169,9.56843878 13.0410648,9.58768343 12.9015773,9.62424826 Z M12.5437617,11.1638201 L11.7412036,11.6045225 C11.826109,11.8777965 11.9878335,12.120279 12.200097,12.3108011 L13.0350001,11.8527784 C12.747939,11.7411595 12.5457833,11.4755834 12.5437617,11.1638201 L12.5437617,11.1638201 Z"></path>
                            </g>
                        </g>
                    </g>
                </g>
            </g>
        </g>
    </g>
</svg>