<?xml version="1.0" encoding="UTF-8"?>
<svg width="1em" height="1em" viewBox="0 0 20 20" version="1.1" xmlns="http://www.w3.org/2000/svg" xmlns:xlink="http://www.w3.org/1999/xlink">
    <title>卡片</title>
    <defs>
        <rect id="path-1" x="0" y="0" width="20" height="20"></rect>
    </defs>
    <g id="猎鹰智能体平台最终版" stroke="none" stroke-width="1" fill="none" fill-rule="evenodd">
        <g id="01猎鹰智能体平台_工作空间_项目开发" transform="translate(-100.000000, -199.000000)">
            <g id="编组-6" transform="translate(80.000000, 0.000000)">
                <g id="编组-9备份-10" transform="translate(8.000000, 193.000000)">
                    <g id="卡片" transform="translate(12.000000, 6.000000)">
                        <mask id="mask-2" fill="white">
                            <use xlink:href="#path-1"></use>
                        </mask>
                        <g id="矩形"></g>
                        <g id="组件" mask="url(#mask-2)" fill-rule="nonzero" stroke="#333333">
                            <g transform="translate(2.000000, 2.000000)" id="路径">
                                <path d="M6.51851852,0.5 C7.03500703,0.5 7.50259963,0.709348335 7.84107009,1.0478188 C8.17954055,1.38628926 8.38888889,1.85388185 8.38889047,2.3716266 L8.17976595,3.46296296 L12.0097617,3.46296296 L12.6189074,7.80008006 L13.1565538,7.66772789 C14.1461181,7.61111112 14.6137107,7.82045946 14.9521812,8.15892993 C15.2906517,8.49740039 15.5,8.96499298 15.5,9.48148148 C15.5,9.99796999 15.2906517,10.4655626 14.9521812,10.804033 C14.6137107,11.1425035 14.1461181,11.3518518 13.6283734,11.3518534 L12.537037,11.1427289 L12.537037,14.9306504 L1.06824409,15.4767834 L0.521124467,3.98727135 L4.8371171,3.3810926 L4.70476493,2.84344624 C4.64814815,1.85388185 4.85749648,1.38628926 5.19596695,1.0478188 C5.53443741,0.709348335 6.00203,0.5 6.51851852,0.5 Z"></path>
                            </g>
                        </g>
                    </g>
                </g>
            </g>
        </g>
    </g>
</svg>